<?xml version="1.0" encoding="UTF-8" standalone="no"?>
<!DOCTYPE svg PUBLIC "-//W3C//DTD SVG 1.1//EN"
 "http://www.w3.org/Graphics/SVG/1.1/DTD/svg11.dtd">
<!-- Generated by graphviz version 12.2.1 (20241206.2353)
 -->
<!-- Title: Иерархия классов. Графический вид. Pages: 1 -->
<svg width="644pt" height="643pt"
 viewBox="0.00 0.00 643.50 643.25" xmlns="http://www.w3.org/2000/svg" xmlns:xlink="http://www.w3.org/1999/xlink">
<g id="graph0" class="graph" transform="scale(1 1) rotate(0) translate(4 639.25)">
<title>Иерархия классов. Графический вид.</title>
<!-- Node0 -->
<g id="Node000000" class="node">
<title>Node0</title>
<g id="a_Node000000"><a xlink:href="classIntroSatLib_1_1BaseAccelerometer.html" target="_top" xlink:title=" ">
<polygon fill="white" stroke="#666666" points="288.5,-579.25 134.5,-579.25 134.5,-560 288.5,-560 288.5,-579.25"/>
<text text-anchor="middle" x="211.5" y="-565.75" font-family="Helvetica,sans-Serif" font-size="10.00">IntroSatLib::BaseAccelerometer</text>
</a>
</g>
</g>
<!-- Node1 -->
<g id="Node000001" class="node">
<title>Node1</title>
<g id="a_Node000001"><a xlink:href="classIntroSatLib_1_1LSM6DS3.html" target="_top" xlink:title=" ">
<polygon fill="white" stroke="#666666" points="447,-598.25 333.5,-598.25 333.5,-579 447,-579 447,-598.25"/>
<text text-anchor="middle" x="390.25" y="-584.75" font-family="Helvetica,sans-Serif" font-size="10.00">IntroSatLib::LSM6DS3</text>
</a>
</g>
</g>
<!-- Node0&#45;&gt;Node1 -->
<g id="edge1_Node000000_Node000001" class="edge">
<title>Node0&#45;&gt;Node1</title>
<g id="a_edge1_Node000000_Node000001"><a xlink:title=" ">
<path fill="none" stroke="#63b8ff" d="M300.18,-579.05C311.4,-580.26 322.63,-581.46 333.15,-582.59"/>
<polygon fill="#63b8ff" stroke="#63b8ff" points="300.82,-575.6 290.5,-578.01 300.07,-582.56 300.82,-575.6"/>
</a>
</g>
</g>
<!-- Node2 -->
<g id="Node000002" class="node">
<title>Node2</title>
<g id="a_Node000002"><a xlink:href="classIntroSatLib_1_1AccelerometerV2.html" target="_top" xlink:title=" ">
<polygon fill="white" stroke="#666666" points="635.5,-598.25 492,-598.25 492,-579 635.5,-579 635.5,-598.25"/>
<text text-anchor="middle" x="563.75" y="-584.75" font-family="Helvetica,sans-Serif" font-size="10.00">IntroSatLib::AccelerometerV2</text>
</a>
</g>
</g>
<!-- Node1&#45;&gt;Node2 -->
<g id="edge2_Node000001_Node000002" class="edge">
<title>Node1&#45;&gt;Node2</title>
<g id="a_edge2_Node000001_Node000002"><a xlink:title=" ">
<path fill="none" stroke="#8b1a1a" d="M458.92,-588.62C469.71,-588.62 480.89,-588.62 491.75,-588.62"/>
<polygon fill="#8b1a1a" stroke="#8b1a1a" points="458.92,-585.13 448.92,-588.63 458.92,-592.13 458.92,-585.13"/>
</a>
</g>
</g>
<!-- Node3 -->
<g id="Node000003" class="node">
<title>Node3</title>
<g id="a_Node000003"><a xlink:href="classIntroSatLib_1_1GyroscopeV2.html" target="_top" xlink:title=" ">
<polygon fill="white" stroke="#666666" points="627.25,-635.25 500.25,-635.25 500.25,-616 627.25,-616 627.25,-635.25"/>
<text text-anchor="middle" x="563.75" y="-621.75" font-family="Helvetica,sans-Serif" font-size="10.00">IntroSatLib::GyroscopeV2</text>
</a>
</g>
</g>
<!-- Node1&#45;&gt;Node3 -->
<g id="edge3_Node000001_Node000003" class="edge">
<title>Node1&#45;&gt;Node3</title>
<g id="a_edge3_Node000001_Node000003"><a xlink:title=" ">
<path fill="none" stroke="#8b1a1a" d="M449.2,-601.13C470.94,-605.82 495.34,-611.08 515.94,-615.53"/>
<polygon fill="#8b1a1a" stroke="#8b1a1a" points="450.11,-597.74 439.59,-599.05 448.63,-604.58 450.11,-597.74"/>
</a>
</g>
</g>
<!-- Node35 -->
<g id="Node000035" class="node">
<title>Node35</title>
<g id="a_Node000035"><a xlink:href="classIntroSatLib_1_1BaseBarometer.html" target="_top" xlink:title=" ">
<polygon fill="white" stroke="#666666" points="279.5,-308.25 143.5,-308.25 143.5,-289 279.5,-289 279.5,-308.25"/>
<text text-anchor="middle" x="211.5" y="-294.75" font-family="Helvetica,sans-Serif" font-size="10.00">IntroSatLib::BaseBarometer</text>
</a>
</g>
</g>
<!-- Node34 -->
<g id="Node000034" class="node">
<title>Node34</title>
<g id="a_Node000034"><a xlink:href="classIntroSatLib_1_1MS5611.html" target="_top" xlink:title=" ">
<polygon fill="white" stroke="#666666" points="442.5,-302.25 338,-302.25 338,-283 442.5,-283 442.5,-302.25"/>
<text text-anchor="middle" x="390.25" y="-288.75" font-family="Helvetica,sans-Serif" font-size="10.00">IntroSatLib::MS5611</text>
</a>
</g>
</g>
<!-- Node35&#45;&gt;Node34 -->
<g id="edge4_Node000035_Node000034" class="edge">
<title>Node35&#45;&gt;Node34</title>
<g id="a_edge4_Node000035_Node000034"><a xlink:title=" ">
<path fill="none" stroke="#63b8ff" d="M291.16,-295.95C306.87,-295.42 322.99,-294.87 337.51,-294.38"/>
<polygon fill="#63b8ff" stroke="#63b8ff" points="291.21,-292.45 281.34,-296.29 291.45,-299.45 291.21,-292.45"/>
</a>
</g>
</g>
<!-- Node4 -->
<g id="Node000004" class="node">
<title>Node4</title>
<g id="a_Node000004"><a xlink:href="classIntroSatLib_1_1BaseGyroscope.html" target="_top" xlink:title=" ">
<polygon fill="white" stroke="#666666" points="280.25,-616.25 142.75,-616.25 142.75,-597 280.25,-597 280.25,-616.25"/>
<text text-anchor="middle" x="211.5" y="-602.75" font-family="Helvetica,sans-Serif" font-size="10.00">IntroSatLib::BaseGyroscope</text>
</a>
</g>
</g>
<!-- Node4&#45;&gt;Node1 -->
<g id="edge5_Node000004_Node000001" class="edge">
<title>Node4&#45;&gt;Node1</title>
<g id="a_edge5_Node000004_Node000001"><a xlink:title=" ">
<path fill="none" stroke="#63b8ff" d="M291.72,-598.56C305.72,-597.13 320.04,-595.67 333.23,-594.33"/>
<polygon fill="#63b8ff" stroke="#63b8ff" points="291.68,-595.04 282.09,-599.54 292.39,-602.01 291.68,-595.04"/>
</a>
</g>
</g>
<!-- Node28 -->
<g id="Node000028" class="node">
<title>Node28</title>
<g id="a_Node000028"><a xlink:href="classIntroSatLib_1_1BaseMagnetometer.html" target="_top" xlink:title=" ">
<polygon fill="white" stroke="#666666" points="288.12,-271.25 134.88,-271.25 134.88,-252 288.12,-252 288.12,-271.25"/>
<text text-anchor="middle" x="211.5" y="-257.75" font-family="Helvetica,sans-Serif" font-size="10.00">IntroSatLib::BaseMagnetometer</text>
</a>
</g>
</g>
<!-- Node27 -->
<g id="Node000027" class="node">
<title>Node27</title>
<g id="a_Node000027"><a xlink:href="classIntroSatLib_1_1LIS2MDL.html" target="_top" xlink:title="LIS2MDL \ Этот класс отвечает за взаимодействие с магнитометром LIS2MDL через шину I2C.">
<polygon fill="white" stroke="#666666" points="445.5,-228.25 335,-228.25 335,-209 445.5,-209 445.5,-228.25"/>
<text text-anchor="middle" x="390.25" y="-214.75" font-family="Helvetica,sans-Serif" font-size="10.00">IntroSatLib::LIS2MDL</text>
</a>
</g>
</g>
<!-- Node28&#45;&gt;Node27 -->
<g id="edge6_Node000028_Node000027" class="edge">
<title>Node28&#45;&gt;Node27</title>
<g id="a_edge6_Node000028_Node000027"><a xlink:title=" ">
<path fill="none" stroke="#63b8ff" d="M266.58,-248.89C273.95,-247.13 281.41,-245.34 288.5,-243.62 308.47,-238.78 330.63,-233.3 349.07,-228.7"/>
<polygon fill="#63b8ff" stroke="#63b8ff" points="265.92,-245.45 257,-251.17 267.54,-252.26 265.92,-245.45"/>
</a>
</g>
</g>
<!-- Node29 -->
<g id="Node000029" class="node">
<title>Node29</title>
<g id="a_Node000029"><a xlink:href="classIntroSatLib_1_1LIS3MDL.html" target="_top" xlink:title=" ">
<polygon fill="white" stroke="#666666" points="445.5,-265.25 335,-265.25 335,-246 445.5,-246 445.5,-265.25"/>
<text text-anchor="middle" x="390.25" y="-251.75" font-family="Helvetica,sans-Serif" font-size="10.00">IntroSatLib::LIS3MDL</text>
</a>
</g>
</g>
<!-- Node28&#45;&gt;Node29 -->
<g id="edge7_Node000028_Node000029" class="edge">
<title>Node28&#45;&gt;Node29</title>
<g id="a_edge7_Node000028_Node000029"><a xlink:title=" ">
<path fill="none" stroke="#63b8ff" d="M299.83,-258.66C311.71,-258.26 323.6,-257.85 334.67,-257.48"/>
<polygon fill="#63b8ff" stroke="#63b8ff" points="299.87,-255.16 290,-258.99 300.11,-262.15 299.87,-255.16"/>
</a>
</g>
</g>
<!-- Node30 -->
<g id="Node000030" class="node">
<title>Node30</title>
<g id="a_Node000030"><a xlink:href="classIntroSatLib_1_1MagnetometerV2.html" target="_top" xlink:title=" ">
<polygon fill="white" stroke="#666666" points="635.12,-265.25 492.38,-265.25 492.38,-246 635.12,-246 635.12,-265.25"/>
<text text-anchor="middle" x="563.75" y="-251.75" font-family="Helvetica,sans-Serif" font-size="10.00">IntroSatLib::MagnetometerV2</text>
</a>
</g>
</g>
<!-- Node29&#45;&gt;Node30 -->
<g id="edge8_Node000029_Node000030" class="edge">
<title>Node29&#45;&gt;Node30</title>
<g id="a_edge8_Node000029_Node000030"><a xlink:title=" ">
<path fill="none" stroke="#8b1a1a" d="M457.17,-255.62C468.55,-255.62 480.42,-255.62 491.92,-255.62"/>
<polygon fill="#8b1a1a" stroke="#8b1a1a" points="457.5,-252.13 447.5,-255.63 457.5,-259.13 457.5,-252.13"/>
</a>
</g>
</g>
<!-- Node32 -->
<g id="Node000032" class="node">
<title>Node32</title>
<g id="a_Node000032"><a xlink:href="classIntroSatLib_1_1BaseTemperatureSensor.html" target="_top" xlink:title=" ">
<polygon fill="white" stroke="#666666" points="284.38,-196.88 138.62,-196.88 138.62,-166.38 284.38,-166.38 284.38,-196.88"/>
<text text-anchor="start" x="146.62" y="-183.38" font-family="Helvetica,sans-Serif" font-size="10.00">IntroSatLib::BaseTemperature</text>
<text text-anchor="middle" x="211.5" y="-172.12" font-family="Helvetica,sans-Serif" font-size="10.00">Sensor</text>
</a>
</g>
</g>
<!-- Node31 -->
<g id="Node000031" class="node">
<title>Node31</title>
<g id="a_Node000031"><a xlink:href="classIntroSatLib_1_1LM75A.html" target="_top" xlink:title=" ">
<polygon fill="white" stroke="#666666" points="440.25,-191.25 340.25,-191.25 340.25,-172 440.25,-172 440.25,-191.25"/>
<text text-anchor="middle" x="390.25" y="-177.75" font-family="Helvetica,sans-Serif" font-size="10.00">IntroSatLib::LM75A</text>
</a>
</g>
</g>
<!-- Node32&#45;&gt;Node31 -->
<g id="edge9_Node000032_Node000031" class="edge">
<title>Node32&#45;&gt;Node31</title>
<g id="a_edge9_Node000032_Node000031"><a xlink:title=" ">
<path fill="none" stroke="#63b8ff" d="M296.08,-181.62C311.12,-181.62 326.35,-181.62 340.01,-181.62"/>
<polygon fill="#63b8ff" stroke="#63b8ff" points="296.16,-178.13 286.16,-181.63 296.16,-185.13 296.16,-178.13"/>
</a>
</g>
</g>
<!-- Node9 -->
<g id="Node000009" class="node">
<title>Node9</title>
<g id="a_Node000009"><a xlink:href="classIntroSatLib_1_1Device.html" target="_top" xlink:title=" ">
<polygon fill="white" stroke="#666666" points="98.5,-191.25 0,-191.25 0,-172 98.5,-172 98.5,-191.25"/>
<text text-anchor="middle" x="49.25" y="-177.75" font-family="Helvetica,sans-Serif" font-size="10.00">IntroSatLib::Device</text>
</a>
</g>
</g>
<!-- Node8 -->
<g id="Node000008" class="node">
<title>Node8</title>
<g id="a_Node000008"><a xlink:href="classIntroSatLib_1_1BaseADC.html" target="_top" xlink:title=" ">
<polygon fill="white" stroke="#666666" points="267.12,-398.25 155.88,-398.25 155.88,-379 267.12,-379 267.12,-398.25"/>
<text text-anchor="middle" x="211.5" y="-384.75" font-family="Helvetica,sans-Serif" font-size="10.00">IntroSatLib::BaseADC</text>
</a>
</g>
</g>
<!-- Node9&#45;&gt;Node8 -->
<g id="edge10_Node000009_Node000008" class="edge">
<title>Node9&#45;&gt;Node8</title>
<g id="a_edge10_Node000009_Node000008"><a xlink:title=" ">
<path fill="none" stroke="#63b8ff" d="M53.48,-203.04C60.6,-242.5 81.45,-326.66 134.5,-370.62 140.66,-375.73 148.02,-379.44 155.69,-382.12"/>
<polygon fill="#63b8ff" stroke="#63b8ff" points="56.94,-202.48 51.84,-193.19 50.03,-203.63 56.94,-202.48"/>
</a>
</g>
</g>
<!-- Node5 -->
<g id="Node000005" class="node">
<title>Node5</title>
<g id="a_Node000005"><a xlink:href="classIntroSatLib_1_1I2CDevice.html" target="_top" xlink:title=" ">
<polygon fill="white" stroke="#666666" points="268.25,-361.25 154.75,-361.25 154.75,-342 268.25,-342 268.25,-361.25"/>
<text text-anchor="middle" x="211.5" y="-347.75" font-family="Helvetica,sans-Serif" font-size="10.00">IntroSatLib::I2CDevice</text>
</a>
</g>
</g>
<!-- Node9&#45;&gt;Node5 -->
<g id="edge13_Node000009_Node000005" class="edge">
<title>Node9&#45;&gt;Node5</title>
<g id="a_edge13_Node000009_Node000005"><a xlink:title=" ">
<path fill="none" stroke="#63b8ff" d="M58.31,-202.11C70.71,-231.27 97.01,-284.85 134.5,-317.62 146.69,-328.28 162.76,-336.12 176.98,-341.57"/>
<polygon fill="#63b8ff" stroke="#63b8ff" points="61.59,-200.89 54.56,-192.96 55.12,-203.54 61.59,-200.89"/>
</a>
</g>
</g>
<!-- Node10 -->
<g id="Node000010" class="node">
<title>Node10</title>
<g id="a_Node000010"><a xlink:href="classIntroSatLib_1_1ISLIRReceiver.html" target="_top" xlink:title="Приёмник ИК&#45;сигналов, работающий по прерываниям.">
<polygon fill="white" stroke="#666666" points="277.62,-234.25 145.38,-234.25 145.38,-215 277.62,-215 277.62,-234.25"/>
<text text-anchor="middle" x="211.5" y="-220.75" font-family="Helvetica,sans-Serif" font-size="10.00">IntroSatLib::ISLIRReceiver</text>
</a>
</g>
</g>
<!-- Node9&#45;&gt;Node10 -->
<g id="edge28_Node000009_Node000010" class="edge">
<title>Node9&#45;&gt;Node10</title>
<g id="a_edge28_Node000009_Node000010"><a xlink:title=" ">
<path fill="none" stroke="#8b1a1a" d="M95.37,-194.77C108.01,-198.37 121.77,-202.22 134.5,-205.62 145.67,-208.61 157.8,-211.71 169.02,-214.51"/>
<polygon fill="#8b1a1a" stroke="#8b1a1a" points="96.64,-191.5 86.07,-192.1 94.72,-198.22 96.64,-191.5"/>
</a>
</g>
</g>
<!-- Node11 -->
<g id="Node000011" class="node">
<title>Node11</title>
<g id="a_Node000011"><a xlink:href="classIntroSatLib_1_1ISLIRTransceiver.html" target="_top" xlink:title="Приёмо&#45;передатчик ИК&#45;сигналов (трансивер).">
<polygon fill="white" stroke="#666666" points="284,-148.25 139,-148.25 139,-129 284,-129 284,-148.25"/>
<text text-anchor="middle" x="211.5" y="-134.75" font-family="Helvetica,sans-Serif" font-size="10.00">IntroSatLib::ISLIRTransceiver</text>
</a>
</g>
</g>
<!-- Node9&#45;&gt;Node11 -->
<g id="edge29_Node000009_Node000011" class="edge">
<title>Node9&#45;&gt;Node11</title>
<g id="a_edge29_Node000009_Node000011"><a xlink:title=" ">
<path fill="none" stroke="#8b1a1a" d="M95.37,-168.48C108.01,-164.88 121.77,-161.03 134.5,-157.62 145.67,-154.64 157.8,-151.54 169.02,-148.74"/>
<polygon fill="#8b1a1a" stroke="#8b1a1a" points="94.72,-165.03 86.07,-171.15 96.64,-171.75 94.72,-165.03"/>
</a>
</g>
</g>
<!-- Node12 -->
<g id="Node000012" class="node">
<title>Node12</title>
<g id="a_Node000012"><a xlink:href="classIntroSatLib_1_1ISLIRTransmitter.html" target="_top" xlink:title="Передатчик ИК&#45;сигналов.">
<polygon fill="white" stroke="#666666" points="283.25,-74.25 139.75,-74.25 139.75,-55 283.25,-55 283.25,-74.25"/>
<text text-anchor="middle" x="211.5" y="-60.75" font-family="Helvetica,sans-Serif" font-size="10.00">IntroSatLib::ISLIRTransmitter</text>
</a>
</g>
</g>
<!-- Node9&#45;&gt;Node12 -->
<g id="edge30_Node000009_Node000012" class="edge">
<title>Node9&#45;&gt;Node12</title>
<g id="a_edge30_Node000009_Node000012"><a xlink:title=" ">
<path fill="none" stroke="#8b1a1a" d="M61.5,-162.07C75.61,-139.39 101.93,-102.56 134.5,-82.62 139.7,-79.44 145.43,-76.82 151.33,-74.66"/>
<polygon fill="#8b1a1a" stroke="#8b1a1a" points="58.67,-159.99 56.53,-170.37 64.67,-163.59 58.67,-159.99"/>
</a>
</g>
</g>
<!-- Node13 -->
<g id="Node000013" class="node">
<title>Node13</title>
<g id="a_Node000013"><a xlink:href="classIntroSatLib_1_1RadioTransceiver.html" target="_top" xlink:title=" ">
<polygon fill="white" stroke="#666666" points="283.62,-435.25 139.38,-435.25 139.38,-416 283.62,-416 283.62,-435.25"/>
<text text-anchor="middle" x="211.5" y="-421.75" font-family="Helvetica,sans-Serif" font-size="10.00">IntroSatLib::RadioTransceiver</text>
</a>
</g>
</g>
<!-- Node9&#45;&gt;Node13 -->
<g id="edge31_Node000009_Node000013" class="edge">
<title>Node9&#45;&gt;Node13</title>
<g id="a_edge31_Node000009_Node000013"><a xlink:title=" ">
<path fill="none" stroke="#63b8ff" d="M51.7,-202.77C55.95,-247.64 72.37,-352.77 134.5,-407.62 138.06,-410.77 142.06,-413.38 146.33,-415.56"/>
<polygon fill="#63b8ff" stroke="#63b8ff" points="55.21,-202.76 50.9,-193.08 48.23,-203.34 55.21,-202.76"/>
</a>
</g>
</g>
<!-- Node14 -->
<g id="Node000014" class="node">
<title>Node14</title>
<g id="a_Node000014"><a xlink:href="classIntroSatLib_1_1SPIDevice.html" target="_top" xlink:title=" ">
<polygon fill="white" stroke="#666666" points="269,-111.25 154,-111.25 154,-92 269,-92 269,-111.25"/>
<text text-anchor="middle" x="211.5" y="-97.75" font-family="Helvetica,sans-Serif" font-size="10.00">IntroSatLib::SPIDevice</text>
</a>
</g>
</g>
<!-- Node9&#45;&gt;Node14 -->
<g id="edge32_Node000009_Node000014" class="edge">
<title>Node9&#45;&gt;Node14</title>
<g id="a_edge32_Node000009_Node000014"><a xlink:title=" ">
<path fill="none" stroke="#63b8ff" d="M69.3,-164.08C85.5,-150.08 109.98,-130.98 134.5,-119.62 141.27,-116.49 148.64,-113.88 156.03,-111.7"/>
<polygon fill="#63b8ff" stroke="#63b8ff" points="67.07,-161.39 61.91,-170.64 71.71,-166.62 67.07,-161.39"/>
</a>
</g>
</g>
<!-- Node16 -->
<g id="Node000016" class="node">
<title>Node16</title>
<g id="a_Node000016"><a xlink:href="classIntroSatLib_1_1UARTDevice.html" target="_top" xlink:title="Базовый класс для устройств, использующих UART интерфейс">
<polygon fill="white" stroke="#666666" points="274.25,-37.25 148.75,-37.25 148.75,-18 274.25,-18 274.25,-37.25"/>
<text text-anchor="middle" x="211.5" y="-23.75" font-family="Helvetica,sans-Serif" font-size="10.00">IntroSatLib::UARTDevice</text>
</a>
</g>
</g>
<!-- Node9&#45;&gt;Node16 -->
<g id="edge34_Node000009_Node000016" class="edge">
<title>Node9&#45;&gt;Node16</title>
<g id="a_edge34_Node000009_Node000016"><a xlink:title=" ">
<path fill="none" stroke="#63b8ff" d="M57.21,-161C68.49,-130.82 93.72,-75.01 134.5,-45.62 138.9,-42.45 143.78,-39.84 148.88,-37.67"/>
<polygon fill="#63b8ff" stroke="#63b8ff" points="54.02,-159.53 53.96,-170.12 60.61,-161.88 54.02,-159.53"/>
</a>
</g>
</g>
<!-- Node6 -->
<g id="Node000006" class="node">
<title>Node6</title>
<g id="a_Node000006"><a xlink:href="classIntroSatLib_1_1ADS7830.html" target="_top" xlink:title="Класс для работы с 8&#45;канальным 8&#45;битным АЦП ADS7830 по интерфейсу I2C.">
<polygon fill="white" stroke="#666666" points="445.12,-561.25 335.38,-561.25 335.38,-542 445.12,-542 445.12,-561.25"/>
<text text-anchor="middle" x="390.25" y="-547.75" font-family="Helvetica,sans-Serif" font-size="10.00">IntroSatLib::ADS7830</text>
</a>
</g>
</g>
<!-- Node8&#45;&gt;Node6 -->
<g id="edge11_Node000008_Node000006" class="edge">
<title>Node8&#45;&gt;Node6</title>
<g id="a_edge11_Node000008_Node000006"><a xlink:title=" ">
<path fill="none" stroke="#63b8ff" d="M278.08,-398.98C281.85,-401.11 285.38,-403.64 288.5,-406.62 330.88,-447.19 282.91,-492.25 324.5,-533.62 327.64,-536.75 331.28,-539.35 335.19,-541.5"/>
<polygon fill="#63b8ff" stroke="#63b8ff" points="279.53,-395.8 268.98,-394.85 276.64,-402.17 279.53,-395.8"/>
</a>
</g>
</g>
<!-- Node7 -->
<g id="Node000007" class="node">
<title>Node7</title>
<g id="a_Node000007"><a xlink:href="classIntroSatLib_1_1PicoADC.html" target="_top" xlink:title="Класс для работы с АЦП на плате питания IntroSat.Pico.">
<polygon fill="white" stroke="#666666" points="617.88,-561.25 509.62,-561.25 509.62,-542 617.88,-542 617.88,-561.25"/>
<text text-anchor="middle" x="563.75" y="-547.75" font-family="Helvetica,sans-Serif" font-size="10.00">IntroSatLib::PicoADC</text>
</a>
</g>
</g>
<!-- Node6&#45;&gt;Node7 -->
<g id="edge12_Node000006_Node000007" class="edge">
<title>Node6&#45;&gt;Node7</title>
<g id="a_edge12_Node000006_Node000007"><a xlink:title=" ">
<path fill="none" stroke="#63b8ff" d="M456.7,-551.62C474.02,-551.62 492.52,-551.62 509.13,-551.62"/>
<polygon fill="#63b8ff" stroke="#63b8ff" points="457.03,-548.13 447.03,-551.63 457.03,-555.13 457.03,-548.13"/>
</a>
</g>
</g>
<!-- Node5&#45;&gt;Node1 -->
<g id="edge25_Node000005_Node000001" class="edge">
<title>Node5&#45;&gt;Node1</title>
<g id="a_edge25_Node000005_Node000001"><a xlink:title=" ">
<path fill="none" stroke="darkgreen" d="M278.61,-361.75C282.23,-363.94 285.58,-366.54 288.5,-369.62 350.87,-435.55 263.41,-503.51 324.5,-570.62 327.41,-573.82 330.82,-576.46 334.55,-578.65"/>
<polygon fill="darkgreen" stroke="darkgreen" points="280.37,-358.71 269.85,-357.53 277.34,-365.02 280.37,-358.71"/>
</a>
</g>
</g>
<!-- Node5&#45;&gt;Node34 -->
<g id="edge27_Node000005_Node000034" class="edge">
<title>Node5&#45;&gt;Node34</title>
<g id="a_edge27_Node000005_Node000034"><a xlink:title=" ">
<path fill="none" stroke="darkgreen" d="M248.85,-337.48C270.64,-329.22 298.98,-318.83 324.5,-310.62 333.05,-307.88 342.32,-305.15 351.09,-302.69"/>
<polygon fill="darkgreen" stroke="darkgreen" points="247.6,-334.21 239.51,-341.05 250.1,-340.75 247.6,-334.21"/>
</a>
</g>
</g>
<!-- Node5&#45;&gt;Node27 -->
<g id="edge22_Node000005_Node000027" class="edge">
<title>Node5&#45;&gt;Node27</title>
<g id="a_edge22_Node000005_Node000027"><a xlink:title=" ">
<path fill="none" stroke="darkgreen" d="M259.19,-337.17C269.78,-332.24 280.31,-325.84 288.5,-317.62 316.32,-289.73 294.67,-262.36 324.5,-236.62 328.21,-233.42 332.45,-230.79 336.93,-228.62"/>
<polygon fill="darkgreen" stroke="darkgreen" points="257.91,-333.91 250.06,-341.02 260.64,-340.36 257.91,-333.91"/>
</a>
</g>
</g>
<!-- Node5&#45;&gt;Node29 -->
<g id="edge23_Node000005_Node000029" class="edge">
<title>Node5&#45;&gt;Node29</title>
<g id="a_edge23_Node000005_Node000029"><a xlink:title=" ">
<path fill="none" stroke="darkgreen" d="M254.06,-337.17C265.82,-332.01 278.21,-325.49 288.5,-317.62 308.57,-302.28 303.34,-287.43 324.5,-273.62 329.39,-270.44 334.83,-267.81 340.44,-265.64"/>
<polygon fill="darkgreen" stroke="darkgreen" points="252.81,-333.9 244.9,-340.95 255.48,-340.37 252.81,-333.9"/>
</a>
</g>
</g>
<!-- Node5&#45;&gt;Node31 -->
<g id="edge24_Node000005_Node000031" class="edge">
<title>Node5&#45;&gt;Node31</title>
<g id="a_edge24_Node000005_Node000031"><a xlink:title=" ">
<path fill="none" stroke="darkgreen" d="M261.72,-336.99C271.65,-332.15 281.26,-325.83 288.5,-317.62 324.78,-276.52 285.25,-237.91 324.5,-199.62 328.93,-195.31 334.3,-192.01 340.03,-189.49"/>
<polygon fill="darkgreen" stroke="darkgreen" points="260.49,-333.71 252.71,-340.91 263.28,-340.13 260.49,-333.71"/>
</a>
</g>
</g>
<!-- Node5&#45;&gt;Node6 -->
<g id="edge14_Node000005_Node000006" class="edge">
<title>Node5&#45;&gt;Node6</title>
<g id="a_edge14_Node000005_Node000006"><a xlink:title=" ">
<path fill="none" stroke="darkgreen" d="M278.98,-362.18C282.44,-364.27 285.66,-366.73 288.5,-369.62 340.83,-422.83 273.21,-479.43 324.5,-533.62 327.55,-536.85 331.12,-539.51 334.99,-541.7"/>
<polygon fill="darkgreen" stroke="darkgreen" points="280.56,-359.06 270.03,-357.87 277.52,-365.36 280.56,-359.06"/>
</a>
</g>
</g>
<!-- Node20 -->
<g id="Node000020" class="node">
<title>Node20</title>
<g id="a_Node000020"><a xlink:href="classIntroSatLib_1_1AK8963.html" target="_top" xlink:title=" ">
<polygon fill="white" stroke="#666666" points="441.75,-376.25 338.75,-376.25 338.75,-357 441.75,-357 441.75,-376.25"/>
<text text-anchor="middle" x="390.25" y="-362.75" font-family="Helvetica,sans-Serif" font-size="10.00">IntroSatLib::AK8963</text>
</a>
</g>
</g>
<!-- Node5&#45;&gt;Node20 -->
<g id="edge15_Node000005_Node000020" class="edge">
<title>Node5&#45;&gt;Node20</title>
<g id="a_edge15_Node000005_Node000020"><a xlink:title=" ">
<path fill="none" stroke="#8b1a1a" d="M279.71,-357.33C299.21,-358.98 320.17,-360.76 338.48,-362.32"/>
<polygon fill="#8b1a1a" stroke="#8b1a1a" points="280.19,-353.86 269.93,-356.5 279.6,-360.83 280.19,-353.86"/>
</a>
</g>
</g>
<!-- Node21 -->
<g id="Node000021" class="node">
<title>Node21</title>
<g id="a_Node000021"><a xlink:href="classIntroSatLib_1_1Accelerometer.html" target="_top" xlink:title=" ">
<polygon fill="white" stroke="#666666" points="456,-339.25 324.5,-339.25 324.5,-320 456,-320 456,-339.25"/>
<text text-anchor="middle" x="390.25" y="-325.75" font-family="Helvetica,sans-Serif" font-size="10.00">IntroSatLib::Accelerometer</text>
</a>
</g>
</g>
<!-- Node5&#45;&gt;Node21 -->
<g id="edge16_Node000005_Node000021" class="edge">
<title>Node5&#45;&gt;Node21</title>
<g id="a_edge16_Node000005_Node000021"><a xlink:title=" ">
<path fill="none" stroke="darkgreen" d="M279.43,-343.29C294.07,-341.47 309.55,-339.54 324.13,-337.73"/>
<polygon fill="darkgreen" stroke="darkgreen" points="279.42,-339.77 269.93,-344.48 280.28,-346.72 279.42,-339.77"/>
</a>
</g>
</g>
<!-- Node22 -->
<g id="Node000022" class="node">
<title>Node22</title>
<g id="a_Node000022"><a xlink:href="classIntroSatLib_1_1BaseFlyWheel.html" target="_top" xlink:title=" ">
<polygon fill="white" stroke="#666666" points="455.62,-524.25 324.88,-524.25 324.88,-505 455.62,-505 455.62,-524.25"/>
<text text-anchor="middle" x="390.25" y="-510.75" font-family="Helvetica,sans-Serif" font-size="10.00">IntroSatLib::BaseFlyWheel</text>
</a>
</g>
</g>
<!-- Node5&#45;&gt;Node22 -->
<g id="edge17_Node000005_Node000022" class="edge">
<title>Node5&#45;&gt;Node22</title>
<g id="a_edge17_Node000005_Node000022"><a xlink:title=" ">
<path fill="none" stroke="#8b1a1a" d="M278.78,-362.38C282.29,-364.43 285.57,-366.82 288.5,-369.62 330.88,-410.19 282.91,-455.25 324.5,-496.62 327.64,-499.75 331.28,-502.35 335.19,-504.5"/>
<polygon fill="#8b1a1a" stroke="#8b1a1a" points="280.28,-359.22 269.74,-358.15 277.31,-365.56 280.28,-359.22"/>
</a>
</g>
</g>
<!-- Node25 -->
<g id="Node000025" class="node">
<title>Node25</title>
<g id="a_Node000025"><a xlink:href="classIntroSatLib_1_1Gyroscope.html" target="_top" xlink:title=" ">
<polygon fill="white" stroke="#666666" points="447.75,-487.25 332.75,-487.25 332.75,-468 447.75,-468 447.75,-487.25"/>
<text text-anchor="middle" x="390.25" y="-473.75" font-family="Helvetica,sans-Serif" font-size="10.00">IntroSatLib::Gyroscope</text>
</a>
</g>
</g>
<!-- Node5&#45;&gt;Node25 -->
<g id="edge20_Node000005_Node000025" class="edge">
<title>Node5&#45;&gt;Node25</title>
<g id="a_edge20_Node000005_Node000025"><a xlink:title=" ">
<path fill="none" stroke="#8b1a1a" d="M278.81,-362.95C282.27,-364.86 285.53,-367.07 288.5,-369.62 321.13,-397.75 292.42,-430.87 324.5,-459.62 328.06,-462.82 332.14,-465.45 336.49,-467.62"/>
<polygon fill="#8b1a1a" stroke="#8b1a1a" points="280.58,-359.91 270.03,-358.97 277.69,-366.29 280.58,-359.91"/>
</a>
</g>
</g>
<!-- Node26 -->
<g id="Node000026" class="node">
<title>Node26</title>
<g id="a_Node000026"><a xlink:href="classIntroSatLib_1_1IRCamera.html" target="_top" xlink:title=" ">
<polygon fill="white" stroke="#666666" points="446.25,-450.25 334.25,-450.25 334.25,-431 446.25,-431 446.25,-450.25"/>
<text text-anchor="middle" x="390.25" y="-436.75" font-family="Helvetica,sans-Serif" font-size="10.00">IntroSatLib::IRCamera</text>
</a>
</g>
</g>
<!-- Node5&#45;&gt;Node26 -->
<g id="edge21_Node000005_Node000026" class="edge">
<title>Node5&#45;&gt;Node26</title>
<g id="a_edge21_Node000005_Node000026"><a xlink:title=" ">
<path fill="none" stroke="#8b1a1a" d="M278.91,-364.08C282.26,-365.71 285.49,-367.55 288.5,-369.62 311.95,-385.78 301.37,-406.02 324.5,-422.62 328.95,-425.82 333.96,-428.45 339.15,-430.62"/>
<polygon fill="#8b1a1a" stroke="#8b1a1a" points="280.5,-360.95 269.92,-360.38 277.83,-367.42 280.5,-360.95"/>
</a>
</g>
</g>
<!-- Node33 -->
<g id="Node000033" class="node">
<title>Node33</title>
<g id="a_Node000033"><a xlink:href="classIntroSatLib_1_1LightSensor.html" target="_top" xlink:title=" ">
<polygon fill="white" stroke="#666666" points="450.75,-413.25 329.75,-413.25 329.75,-394 450.75,-394 450.75,-413.25"/>
<text text-anchor="middle" x="390.25" y="-399.75" font-family="Helvetica,sans-Serif" font-size="10.00">IntroSatLib::LightSensor</text>
</a>
</g>
</g>
<!-- Node5&#45;&gt;Node33 -->
<g id="edge26_Node000005_Node000033" class="edge">
<title>Node5&#45;&gt;Node33</title>
<g id="a_edge26_Node000005_Node000033"><a xlink:title=" ">
<path fill="none" stroke="#8b1a1a" d="M271.95,-364.58C277.58,-366.14 283.18,-367.83 288.5,-369.62 305.09,-375.22 308.02,-379.71 324.5,-385.62 332.52,-388.5 341.23,-391.2 349.58,-393.59"/>
<polygon fill="#8b1a1a" stroke="#8b1a1a" points="273.15,-361.27 262.59,-362.11 271.37,-368.04 273.15,-361.27"/>
</a>
</g>
</g>
<!-- Node23 -->
<g id="Node000023" class="node">
<title>Node23</title>
<g id="a_Node000023"><a xlink:href="classIntroSatLib_1_1CoilFlyWheel.html" target="_top" xlink:title=" ">
<polygon fill="white" stroke="#666666" points="626.12,-487.25 501.38,-487.25 501.38,-468 626.12,-468 626.12,-487.25"/>
<text text-anchor="middle" x="563.75" y="-473.75" font-family="Helvetica,sans-Serif" font-size="10.00">IntroSatLib::CoilFlyWheel</text>
</a>
</g>
</g>
<!-- Node22&#45;&gt;Node23 -->
<g id="edge18_Node000022_Node000023" class="edge">
<title>Node22&#45;&gt;Node23</title>
<g id="a_edge18_Node000022_Node000023"><a xlink:title=" ">
<path fill="none" stroke="#63b8ff" d="M449.2,-502.12C470.94,-497.43 495.34,-492.17 515.94,-487.72"/>
<polygon fill="#63b8ff" stroke="#63b8ff" points="448.63,-498.67 439.59,-504.2 450.11,-505.51 448.63,-498.67"/>
</a>
</g>
</g>
<!-- Node24 -->
<g id="Node000024" class="node">
<title>Node24</title>
<g id="a_Node000024"><a xlink:href="classIntroSatLib_1_1MotorFlyWheel.html" target="_top" xlink:title=" ">
<polygon fill="white" stroke="#666666" points="630.25,-524.25 497.25,-524.25 497.25,-505 630.25,-505 630.25,-524.25"/>
<text text-anchor="middle" x="563.75" y="-510.75" font-family="Helvetica,sans-Serif" font-size="10.00">IntroSatLib::MotorFlyWheel</text>
</a>
</g>
</g>
<!-- Node22&#45;&gt;Node24 -->
<g id="edge19_Node000022_Node000024" class="edge">
<title>Node22&#45;&gt;Node24</title>
<g id="a_edge19_Node000022_Node000024"><a xlink:title=" ">
<path fill="none" stroke="#63b8ff" d="M467.51,-514.62C477.34,-514.62 487.33,-514.62 496.97,-514.62"/>
<polygon fill="#63b8ff" stroke="#63b8ff" points="467.6,-511.13 457.6,-514.63 467.6,-518.13 467.6,-511.13"/>
</a>
</g>
</g>
<!-- Node15 -->
<g id="Node000015" class="node">
<title>Node15</title>
<g id="a_Node000015"><a xlink:href="classIntroSatLib_1_1CC1101.html" target="_top" xlink:title=" ">
<polygon fill="white" stroke="#666666" points="441.75,-111.25 338.75,-111.25 338.75,-92 441.75,-92 441.75,-111.25"/>
<text text-anchor="middle" x="390.25" y="-97.75" font-family="Helvetica,sans-Serif" font-size="10.00">IntroSatLib::CC1101</text>
</a>
</g>
</g>
<!-- Node14&#45;&gt;Node15 -->
<g id="edge33_Node000014_Node000015" class="edge">
<title>Node14&#45;&gt;Node15</title>
<g id="a_edge33_Node000014_Node000015"><a xlink:title=" ">
<path fill="none" stroke="#8b1a1a" d="M280.81,-101.62C299.98,-101.62 320.47,-101.62 338.43,-101.62"/>
<polygon fill="#8b1a1a" stroke="#8b1a1a" points="280.91,-98.13 270.91,-101.63 280.91,-105.13 280.91,-98.13"/>
</a>
</g>
</g>
<!-- Node17 -->
<g id="Node000017" class="node">
<title>Node17</title>
<g id="a_Node000017"><a xlink:href="classIntroSatLib_1_1ATDevice.html" target="_top" xlink:title="Базовый класс для устройств, использующих AT&#45;команды">
<polygon fill="white" stroke="#666666" points="445.88,-19.25 334.62,-19.25 334.62,0 445.88,0 445.88,-19.25"/>
<text text-anchor="middle" x="390.25" y="-5.75" font-family="Helvetica,sans-Serif" font-size="10.00">IntroSatLib::ATDevice</text>
</a>
</g>
</g>
<!-- Node16&#45;&gt;Node17 -->
<g id="edge35_Node000016_Node000017" class="edge">
<title>Node16&#45;&gt;Node17</title>
<g id="a_edge35_Node000016_Node000017"><a xlink:title=" ">
<path fill="none" stroke="#63b8ff" d="M285.47,-20.19C301.78,-18.53 318.81,-16.8 334.25,-15.23"/>
<polygon fill="#63b8ff" stroke="#63b8ff" points="285.42,-16.68 275.82,-21.18 286.13,-23.64 285.42,-16.68"/>
</a>
</g>
</g>
<!-- Node19 -->
<g id="Node000019" class="node">
<title>Node19</title>
<g id="a_Node000019"><a xlink:href="classIntroSatLib_1_1E32__433.html" target="_top" xlink:title="Класс для управления LoRa модулем E32&#45;433.">
<polygon fill="white" stroke="#666666" points="443.25,-56.25 337.25,-56.25 337.25,-37 443.25,-37 443.25,-56.25"/>
<text text-anchor="middle" x="390.25" y="-42.75" font-family="Helvetica,sans-Serif" font-size="10.00">IntroSatLib::E32_433</text>
</a>
</g>
</g>
<!-- Node16&#45;&gt;Node19 -->
<g id="edge37_Node000016_Node000019" class="edge">
<title>Node16&#45;&gt;Node19</title>
<g id="a_edge37_Node000016_Node000019"><a xlink:title=" ">
<path fill="none" stroke="#63b8ff" d="M285.49,-35.47C302.72,-37.32 320.74,-39.26 336.85,-40.99"/>
<polygon fill="#63b8ff" stroke="#63b8ff" points="286.14,-32.02 275.82,-34.43 285.39,-38.98 286.14,-32.02"/>
</a>
</g>
</g>
<!-- Node18 -->
<g id="Node000018" class="node">
<title>Node18</title>
<g id="a_Node000018"><a xlink:href="classIntroSatLib_1_1FSC__BT986.html" target="_top" xlink:title="Класс драйвера Bluetooth&#45;модуля FSC&#45;BT986.">
<polygon fill="white" stroke="#666666" points="624.62,-19.25 502.88,-19.25 502.88,0 624.62,0 624.62,-19.25"/>
<text text-anchor="middle" x="563.75" y="-5.75" font-family="Helvetica,sans-Serif" font-size="10.00">IntroSatLib::FSC_BT986</text>
</a>
</g>
</g>
<!-- Node17&#45;&gt;Node18 -->
<g id="edge36_Node000017_Node000018" class="edge">
<title>Node17&#45;&gt;Node18</title>
<g id="a_edge36_Node000017_Node000018"><a xlink:title=" ">
<path fill="none" stroke="#63b8ff" d="M457.21,-9.62C472.14,-9.62 487.92,-9.62 502.59,-9.62"/>
<polygon fill="#63b8ff" stroke="#63b8ff" points="457.5,-6.13 447.5,-9.63 457.5,-13.13 457.5,-6.13"/>
</a>
</g>
</g>
</g>
</svg>
