<?xml version="1.0" encoding="UTF-8" standalone="no"?>
<!DOCTYPE svg PUBLIC "-//W3C//DTD SVG 1.1//EN"
 "http://www.w3.org/Graphics/SVG/1.1/DTD/svg11.dtd">
<!-- Generated by graphviz version 12.2.1 (20241206.2353)
 -->
<!-- Title: IntroSatLib::BaseFlyWheel Pages: 1 -->
<svg width="284pt" height="193pt"
 viewBox="0.00 0.00 283.88 193.00" xmlns="http://www.w3.org/2000/svg" xmlns:xlink="http://www.w3.org/1999/xlink">
<g id="graph0" class="graph" transform="scale(1 1) rotate(0) translate(4 189)">
<title>IntroSatLib::BaseFlyWheel</title>
<!-- Node1 -->
<g id="Node000001" class="node">
<title>Node1</title>
<g id="a_Node000001"><a xlink:title=" ">
<polygon fill="#999999" stroke="#666666" points="200.75,-74.5 70,-74.5 70,-55.25 200.75,-55.25 200.75,-74.5"/>
<text text-anchor="middle" x="135.38" y="-61" font-family="Helvetica,sans-Serif" font-size="10.00">IntroSatLib::BaseFlyWheel</text>
</a>
</g>
</g>
<!-- Node4 -->
<g id="Node000004" class="node">
<title>Node4</title>
<g id="a_Node000004"><a xlink:href="classIntroSatLib_1_1CoilFlyWheel.html" target="_top" xlink:title=" ">
<polygon fill="white" stroke="#bfbfbf" points="124.75,-19.25 0,-19.25 0,0 124.75,0 124.75,-19.25"/>
<text text-anchor="middle" x="62.38" y="-5.75" font-family="Helvetica,sans-Serif" font-size="10.00">IntroSatLib::CoilFlyWheel</text>
</a>
</g>
</g>
<!-- Node1&#45;&gt;Node4 -->
<g id="edge3_Node000001_Node000004" class="edge">
<title>Node1&#45;&gt;Node4</title>
<g id="a_edge3_Node000001_Node000004"><a xlink:title=" ">
<path fill="none" stroke="#63b8ff" d="M113.91,-48.22C101.09,-38.87 85.28,-27.33 74.58,-19.52"/>
<polygon fill="#63b8ff" stroke="#63b8ff" points="111.63,-50.88 121.77,-53.95 115.75,-45.23 111.63,-50.88"/>
</a>
</g>
</g>
<!-- Node5 -->
<g id="Node000005" class="node">
<title>Node5</title>
<g id="a_Node000005"><a xlink:href="classIntroSatLib_1_1MotorFlyWheel.html" target="_top" xlink:title=" ">
<polygon fill="white" stroke="#bfbfbf" points="275.88,-19.25 142.88,-19.25 142.88,0 275.88,0 275.88,-19.25"/>
<text text-anchor="middle" x="209.38" y="-5.75" font-family="Helvetica,sans-Serif" font-size="10.00">IntroSatLib::MotorFlyWheel</text>
</a>
</g>
</g>
<!-- Node1&#45;&gt;Node5 -->
<g id="edge4_Node000001_Node000005" class="edge">
<title>Node1&#45;&gt;Node5</title>
<g id="a_edge4_Node000001_Node000005"><a xlink:title=" ">
<path fill="none" stroke="#63b8ff" d="M157.13,-48.22C170.13,-38.87 186.16,-27.33 197.01,-19.52"/>
<polygon fill="#63b8ff" stroke="#63b8ff" points="155.23,-45.28 149.16,-53.96 159.32,-50.96 155.23,-45.28"/>
</a>
</g>
</g>
<!-- Node2 -->
<g id="Node000002" class="node">
<title>Node2</title>
<g id="a_Node000002"><a xlink:href="classIntroSatLib_1_1I2CDevice.html" target="_top" xlink:title=" ">
<polygon fill="white" stroke="#bfbfbf" points="192.12,-129.75 78.62,-129.75 78.62,-110.5 192.12,-110.5 192.12,-129.75"/>
<text text-anchor="middle" x="135.38" y="-116.25" font-family="Helvetica,sans-Serif" font-size="10.00">IntroSatLib::I2CDevice</text>
</a>
</g>
</g>
<!-- Node2&#45;&gt;Node1 -->
<g id="edge1_Node000001_Node000002" class="edge">
<title>Node2&#45;&gt;Node1</title>
<g id="a_edge1_Node000001_Node000002"><a xlink:title=" ">
<path fill="none" stroke="#8b1a1a" d="M135.38,-98.88C135.38,-90.59 135.38,-81.42 135.38,-74.86"/>
<polygon fill="#8b1a1a" stroke="#8b1a1a" points="131.88,-98.82 135.38,-108.82 138.88,-98.82 131.88,-98.82"/>
</a>
</g>
</g>
<!-- Node3 -->
<g id="Node000003" class="node">
<title>Node3</title>
<g id="a_Node000003"><a xlink:href="classIntroSatLib_1_1Device.html" target="_top" xlink:title=" ">
<polygon fill="white" stroke="#bfbfbf" points="184.62,-185 86.12,-185 86.12,-165.75 184.62,-165.75 184.62,-185"/>
<text text-anchor="middle" x="135.38" y="-171.5" font-family="Helvetica,sans-Serif" font-size="10.00">IntroSatLib::Device</text>
</a>
</g>
</g>
<!-- Node3&#45;&gt;Node2 -->
<g id="edge2_Node000002_Node000003" class="edge">
<title>Node3&#45;&gt;Node2</title>
<g id="a_edge2_Node000002_Node000003"><a xlink:title=" ">
<path fill="none" stroke="#63b8ff" d="M135.38,-154.13C135.38,-145.84 135.38,-136.67 135.38,-130.11"/>
<polygon fill="#63b8ff" stroke="#63b8ff" points="131.88,-154.07 135.38,-164.07 138.88,-154.07 131.88,-154.07"/>
</a>
</g>
</g>
</g>
</svg>
