<?xml version="1.0" encoding="UTF-8" standalone="no"?>
<!DOCTYPE svg PUBLIC "-//W3C//DTD SVG 1.1//EN"
 "http://www.w3.org/Graphics/SVG/1.1/DTD/svg11.dtd">
<!-- Generated by graphviz version 2.43.0 (0)
 -->
<!-- Title: IntroSatLib::I2CDevice Pages: 1 -->
<svg width="656pt" height="471pt"
 viewBox="0.00 0.00 656.00 471.00" xmlns="http://www.w3.org/2000/svg" xmlns:xlink="http://www.w3.org/1999/xlink">
<g id="graph0" class="graph" transform="scale(1 1) rotate(0) translate(4 467)">
<title>IntroSatLib::I2CDevice</title>
<!-- Node1 -->
<g id="Node000001" class="node">
<title>Node1</title>
<g id="a_Node000001"><a xlink:title=" ">
<polygon fill="#999999" stroke="#666666" points="270,-241 145,-241 145,-222 270,-222 270,-241"/>
<text text-anchor="middle" x="207.5" y="-229" font-family="Helvetica,sans-Serif" font-size="10.00">IntroSatLib::I2CDevice</text>
</a>
</g>
</g>
<!-- Node3 -->
<g id="Node000003" class="node">
<title>Node3</title>
<g id="a_Node000003"><a xlink:href="classIntroSatLib_1_1ADS7830.html" target="_top" xlink:title="Класс для работы с 8&#45;канальным 8&#45;битным АЦП ADS7830 по интерфейсу I2C.">
<polygon fill="white" stroke="#666666" points="438.5,-463 319.5,-463 319.5,-444 438.5,-444 438.5,-463"/>
<text text-anchor="middle" x="379" y="-451" font-family="Helvetica,sans-Serif" font-size="10.00">IntroSatLib::ADS7830</text>
</a>
</g>
</g>
<!-- Node1&#45;&gt;Node3 -->
<g id="edge2_Node000001_Node000003" class="edge">
<title>Node1&#45;&gt;Node3</title>
<g id="a_edge2_Node000001_Node000003"><a xlink:title=" ">
<path fill="none" stroke="darkgreen" d="M212.11,-251.25C220.67,-292.2 246.13,-386.59 306,-435.5 310.19,-438.92 314.94,-441.71 319.96,-443.97"/>
<polygon fill="darkgreen" stroke="darkgreen" points="215.54,-250.55 210.17,-241.41 208.67,-251.9 215.54,-250.55"/>
</a>
</g>
</g>
<!-- Node4 -->
<g id="Node000004" class="node">
<title>Node4</title>
<g id="a_Node000004"><a xlink:href="classIntroSatLib_1_1AK8963.html" target="_top" xlink:title=" ">
<polygon fill="white" stroke="#bfbfbf" points="435.5,-426 322.5,-426 322.5,-407 435.5,-407 435.5,-426"/>
<text text-anchor="middle" x="379" y="-414" font-family="Helvetica,sans-Serif" font-size="10.00">IntroSatLib::AK8963</text>
</a>
</g>
</g>
<!-- Node1&#45;&gt;Node4 -->
<g id="edge3_Node000001_Node000004" class="edge">
<title>Node1&#45;&gt;Node4</title>
<g id="a_edge3_Node000001_Node000004"><a xlink:title=" ">
<path fill="none" stroke="#8b1a1a" d="M214.35,-251.22C225.86,-286.47 254.87,-360.14 306,-398.5 310.95,-402.21 316.57,-405.16 322.44,-407.51"/>
<polygon fill="#8b1a1a" stroke="#8b1a1a" points="217.55,-249.72 211.23,-241.23 210.87,-251.81 217.55,-249.72"/>
</a>
</g>
</g>
<!-- Node5 -->
<g id="Node000005" class="node">
<title>Node5</title>
<g id="a_Node000005"><a xlink:href="classIntroSatLib_1_1Accelerometer.html" target="_top" xlink:title=" ">
<polygon fill="white" stroke="#bfbfbf" points="452,-389 306,-389 306,-370 452,-370 452,-389"/>
<text text-anchor="middle" x="379" y="-377" font-family="Helvetica,sans-Serif" font-size="10.00">IntroSatLib::Accelerometer</text>
</a>
</g>
</g>
<!-- Node1&#45;&gt;Node5 -->
<g id="edge4_Node000001_Node000005" class="edge">
<title>Node1&#45;&gt;Node5</title>
<g id="a_edge4_Node000001_Node000005"><a xlink:title=" ">
<path fill="none" stroke="darkgreen" d="M217.37,-250.42C231.79,-279.03 263.09,-333.01 306,-361.5 311.15,-364.92 316.9,-367.69 322.85,-369.94"/>
<polygon fill="darkgreen" stroke="darkgreen" points="220.36,-248.57 212.83,-241.11 214.07,-251.64 220.36,-248.57"/>
</a>
</g>
</g>
<!-- Node6 -->
<g id="Node000006" class="node">
<title>Node6</title>
<g id="a_Node000006"><a xlink:href="classIntroSatLib_1_1BaseFlyWheel.html" target="_top" xlink:title=" ">
<polygon fill="white" stroke="#bfbfbf" points="451.5,-352 306.5,-352 306.5,-333 451.5,-333 451.5,-352"/>
<text text-anchor="middle" x="379" y="-340" font-family="Helvetica,sans-Serif" font-size="10.00">IntroSatLib::BaseFlyWheel</text>
</a>
</g>
</g>
<!-- Node1&#45;&gt;Node6 -->
<g id="edge5_Node000001_Node000006" class="edge">
<title>Node1&#45;&gt;Node6</title>
<g id="a_edge5_Node000001_Node000006"><a xlink:title=" ">
<path fill="none" stroke="#8b1a1a" d="M221.9,-248.92C239.09,-270.03 270.88,-305.16 306,-324.5 312.21,-327.92 319.07,-330.7 326.02,-332.96"/>
<polygon fill="#8b1a1a" stroke="#8b1a1a" points="224.63,-246.73 215.66,-241.08 219.15,-251.08 224.63,-246.73"/>
</a>
</g>
</g>
<!-- Node9 -->
<g id="Node000009" class="node">
<title>Node9</title>
<g id="a_Node000009"><a xlink:href="classIntroSatLib_1_1Gyroscope.html" target="_top" xlink:title=" ">
<polygon fill="white" stroke="#bfbfbf" points="442.5,-315 315.5,-315 315.5,-296 442.5,-296 442.5,-315"/>
<text text-anchor="middle" x="379" y="-303" font-family="Helvetica,sans-Serif" font-size="10.00">IntroSatLib::Gyroscope</text>
</a>
</g>
</g>
<!-- Node1&#45;&gt;Node9 -->
<g id="edge8_Node000001_Node000009" class="edge">
<title>Node1&#45;&gt;Node9</title>
<g id="a_edge8_Node000001_Node000009"><a xlink:title=" ">
<path fill="none" stroke="#8b1a1a" d="M231.43,-246.66C250.67,-258.83 279.23,-275.63 306,-286.5 314.98,-290.15 324.88,-293.29 334.39,-295.91"/>
<polygon fill="#8b1a1a" stroke="#8b1a1a" points="233.08,-243.57 222.78,-241.11 229.3,-249.46 233.08,-243.57"/>
</a>
</g>
</g>
<!-- Node10 -->
<g id="Node000010" class="node">
<title>Node10</title>
<g id="a_Node000010"><a xlink:href="classIntroSatLib_1_1IRCamera.html" target="_top" xlink:title=" ">
<polygon fill="white" stroke="#bfbfbf" points="440.5,-278 317.5,-278 317.5,-259 440.5,-259 440.5,-278"/>
<text text-anchor="middle" x="379" y="-266" font-family="Helvetica,sans-Serif" font-size="10.00">IntroSatLib::IRCamera</text>
</a>
</g>
</g>
<!-- Node1&#45;&gt;Node10 -->
<g id="edge9_Node000001_Node000010" class="edge">
<title>Node1&#45;&gt;Node10</title>
<g id="a_edge9_Node000001_Node000010"><a xlink:title=" ">
<path fill="none" stroke="#8b1a1a" d="M262.19,-243.22C285.4,-248.29 312.22,-254.14 334.2,-258.94"/>
<polygon fill="#8b1a1a" stroke="#8b1a1a" points="262.67,-239.74 252.15,-241.03 261.17,-246.58 262.67,-239.74"/>
</a>
</g>
</g>
<!-- Node11 -->
<g id="Node000011" class="node">
<title>Node11</title>
<g id="a_Node000011"><a xlink:href="classIntroSatLib_1_1LIS2MDL.html" target="_top" xlink:title="LIS2MDL \ Этот класс отвечает за взаимодействие с магнитометром LIS2MDL через шину I2C.">
<polygon fill="white" stroke="#666666" points="437.5,-241 320.5,-241 320.5,-222 437.5,-222 437.5,-241"/>
<text text-anchor="middle" x="379" y="-229" font-family="Helvetica,sans-Serif" font-size="10.00">IntroSatLib::LIS2MDL</text>
</a>
</g>
</g>
<!-- Node1&#45;&gt;Node11 -->
<g id="edge10_Node000001_Node000011" class="edge">
<title>Node1&#45;&gt;Node11</title>
<g id="a_edge10_Node000001_Node000011"><a xlink:title=" ">
<path fill="none" stroke="darkgreen" d="M280.28,-231.5C293.65,-231.5 307.45,-231.5 320.32,-231.5"/>
<polygon fill="darkgreen" stroke="darkgreen" points="280.17,-228 270.17,-231.5 280.17,-235 280.17,-228"/>
</a>
</g>
</g>
<!-- Node12 -->
<g id="Node000012" class="node">
<title>Node12</title>
<g id="a_Node000012"><a xlink:href="classIntroSatLib_1_1LIS3MDL.html" target="_top" xlink:title=" ">
<polygon fill="white" stroke="#bfbfbf" points="437.5,-204 320.5,-204 320.5,-185 437.5,-185 437.5,-204"/>
<text text-anchor="middle" x="379" y="-192" font-family="Helvetica,sans-Serif" font-size="10.00">IntroSatLib::LIS3MDL</text>
</a>
</g>
</g>
<!-- Node1&#45;&gt;Node12 -->
<g id="edge11_Node000001_Node000012" class="edge">
<title>Node1&#45;&gt;Node12</title>
<g id="a_edge11_Node000001_Node000012"><a xlink:title=" ">
<path fill="none" stroke="darkgreen" d="M262.19,-219.78C285.4,-214.71 312.22,-208.86 334.2,-204.06"/>
<polygon fill="darkgreen" stroke="darkgreen" points="261.17,-216.42 252.15,-221.97 262.67,-223.26 261.17,-216.42"/>
</a>
</g>
</g>
<!-- Node14 -->
<g id="Node000014" class="node">
<title>Node14</title>
<g id="a_Node000014"><a xlink:href="classIntroSatLib_1_1LM75A.html" target="_top" xlink:title=" ">
<polygon fill="white" stroke="#bfbfbf" points="433,-167 325,-167 325,-148 433,-148 433,-167"/>
<text text-anchor="middle" x="379" y="-155" font-family="Helvetica,sans-Serif" font-size="10.00">IntroSatLib::LM75A</text>
</a>
</g>
</g>
<!-- Node1&#45;&gt;Node14 -->
<g id="edge13_Node000001_Node000014" class="edge">
<title>Node1&#45;&gt;Node14</title>
<g id="a_edge13_Node000001_Node000014"><a xlink:title=" ">
<path fill="none" stroke="darkgreen" d="M230.76,-216.33C249.96,-203.84 278.8,-186.46 306,-175.5 314.13,-172.22 323.02,-169.42 331.69,-167.06"/>
<polygon fill="darkgreen" stroke="darkgreen" points="228.82,-213.42 222.41,-221.85 232.68,-219.26 228.82,-213.42"/>
</a>
</g>
</g>
<!-- Node15 -->
<g id="Node000015" class="node">
<title>Node15</title>
<g id="a_Node000015"><a xlink:href="classIntroSatLib_1_1LSM6DS3.html" target="_top" xlink:title=" ">
<polygon fill="white" stroke="#bfbfbf" points="439.5,-130 318.5,-130 318.5,-111 439.5,-111 439.5,-130"/>
<text text-anchor="middle" x="379" y="-118" font-family="Helvetica,sans-Serif" font-size="10.00">IntroSatLib::LSM6DS3</text>
</a>
</g>
</g>
<!-- Node1&#45;&gt;Node15 -->
<g id="edge14_Node000001_Node000015" class="edge">
<title>Node1&#45;&gt;Node15</title>
<g id="a_edge14_Node000001_Node000015"><a xlink:title=" ">
<path fill="none" stroke="darkgreen" d="M221.9,-214.08C239.09,-192.97 270.88,-157.84 306,-138.5 312.21,-135.08 319.07,-132.3 326.02,-130.04"/>
<polygon fill="darkgreen" stroke="darkgreen" points="219.15,-211.92 215.66,-221.92 224.63,-216.27 219.15,-211.92"/>
</a>
</g>
</g>
<!-- Node18 -->
<g id="Node000018" class="node">
<title>Node18</title>
<g id="a_Node000018"><a xlink:href="classIntroSatLib_1_1LightSensor.html" target="_top" xlink:title=" ">
<polygon fill="white" stroke="#bfbfbf" points="445,-93 313,-93 313,-74 445,-74 445,-93"/>
<text text-anchor="middle" x="379" y="-81" font-family="Helvetica,sans-Serif" font-size="10.00">IntroSatLib::LightSensor</text>
</a>
</g>
</g>
<!-- Node1&#45;&gt;Node18 -->
<g id="edge17_Node000001_Node000018" class="edge">
<title>Node1&#45;&gt;Node18</title>
<g id="a_edge17_Node000001_Node000018"><a xlink:title=" ">
<path fill="none" stroke="#8b1a1a" d="M217.37,-212.58C231.79,-183.97 263.09,-129.99 306,-101.5 311.15,-98.08 316.9,-95.31 322.85,-93.06"/>
<polygon fill="#8b1a1a" stroke="#8b1a1a" points="214.07,-211.36 212.83,-221.89 220.36,-214.43 214.07,-211.36"/>
</a>
</g>
</g>
<!-- Node19 -->
<g id="Node000019" class="node">
<title>Node19</title>
<g id="a_Node000019"><a xlink:href="classIntroSatLib_1_1M24C02.html" target="_top" xlink:title=" ">
<polygon fill="white" stroke="#bfbfbf" points="436.5,-56 321.5,-56 321.5,-37 436.5,-37 436.5,-56"/>
<text text-anchor="middle" x="379" y="-44" font-family="Helvetica,sans-Serif" font-size="10.00">IntroSatLib::M24C02</text>
</a>
</g>
</g>
<!-- Node1&#45;&gt;Node19 -->
<g id="edge18_Node000001_Node000019" class="edge">
<title>Node1&#45;&gt;Node19</title>
<g id="a_edge18_Node000001_Node000019"><a xlink:title=" ">
<path fill="none" stroke="#8b1a1a" d="M214.35,-211.78C225.86,-176.53 254.87,-102.86 306,-64.5 310.64,-61.02 315.87,-58.21 321.34,-55.94"/>
<polygon fill="#8b1a1a" stroke="#8b1a1a" points="210.87,-211.19 211.23,-221.77 217.55,-213.28 210.87,-211.19"/>
</a>
</g>
</g>
<!-- Node20 -->
<g id="Node000020" class="node">
<title>Node20</title>
<g id="a_Node000020"><a xlink:href="classIntroSatLib_1_1MS5611.html" target="_top" xlink:title=" ">
<polygon fill="white" stroke="#bfbfbf" points="436,-19 322,-19 322,0 436,0 436,-19"/>
<text text-anchor="middle" x="379" y="-7" font-family="Helvetica,sans-Serif" font-size="10.00">IntroSatLib::MS5611</text>
</a>
</g>
</g>
<!-- Node1&#45;&gt;Node20 -->
<g id="edge19_Node000001_Node000020" class="edge">
<title>Node1&#45;&gt;Node20</title>
<g id="a_edge19_Node000001_Node000020"><a xlink:title=" ">
<path fill="none" stroke="darkgreen" d="M212.11,-211.75C220.67,-170.8 246.13,-76.41 306,-27.5 310.69,-23.67 316.08,-20.64 321.77,-18.24"/>
<polygon fill="darkgreen" stroke="darkgreen" points="208.67,-211.1 210.17,-221.59 215.54,-212.45 208.67,-211.1"/>
</a>
</g>
</g>
<!-- Node2 -->
<g id="Node000002" class="node">
<title>Node2</title>
<g id="a_Node000002"><a xlink:href="classIntroSatLib_1_1Device.html" target="_top" xlink:title=" ">
<polygon fill="white" stroke="#bfbfbf" points="109,-241 0,-241 0,-222 109,-222 109,-241"/>
<text text-anchor="middle" x="54.5" y="-229" font-family="Helvetica,sans-Serif" font-size="10.00">IntroSatLib::Device</text>
</a>
</g>
</g>
<!-- Node2&#45;&gt;Node1 -->
<g id="edge1_Node000001_Node000002" class="edge">
<title>Node2&#45;&gt;Node1</title>
<g id="a_edge1_Node000001_Node000002"><a xlink:title=" ">
<path fill="none" stroke="#63b8ff" d="M119.32,-231.5C127.75,-231.5 136.38,-231.5 144.77,-231.5"/>
<polygon fill="#63b8ff" stroke="#63b8ff" points="119.16,-228 109.16,-231.5 119.16,-235 119.16,-228"/>
</a>
</g>
</g>
<!-- Node7 -->
<g id="Node000007" class="node">
<title>Node7</title>
<g id="a_Node000007"><a xlink:href="classIntroSatLib_1_1CoilFlyWheel.html" target="_top" xlink:title=" ">
<polygon fill="white" stroke="#bfbfbf" points="638,-370 498,-370 498,-351 638,-351 638,-370"/>
<text text-anchor="middle" x="568" y="-358" font-family="Helvetica,sans-Serif" font-size="10.00">IntroSatLib::CoilFlyWheel</text>
</a>
</g>
</g>
<!-- Node6&#45;&gt;Node7 -->
<g id="edge6_Node000006_Node000007" class="edge">
<title>Node6&#45;&gt;Node7</title>
<g id="a_edge6_Node000006_Node000007"><a xlink:title=" ">
<path fill="none" stroke="#63b8ff" d="M461.8,-350.37C473.84,-351.53 486.14,-352.72 497.89,-353.85"/>
<polygon fill="#63b8ff" stroke="#63b8ff" points="462.05,-346.88 451.76,-349.41 461.38,-353.85 462.05,-346.88"/>
</a>
</g>
</g>
<!-- Node8 -->
<g id="Node000008" class="node">
<title>Node8</title>
<g id="a_Node000008"><a xlink:href="classIntroSatLib_1_1MotorFlyWheel.html" target="_top" xlink:title=" ">
<polygon fill="white" stroke="#bfbfbf" points="642.5,-333 493.5,-333 493.5,-314 642.5,-314 642.5,-333"/>
<text text-anchor="middle" x="568" y="-321" font-family="Helvetica,sans-Serif" font-size="10.00">IntroSatLib::MotorFlyWheel</text>
</a>
</g>
</g>
<!-- Node6&#45;&gt;Node8 -->
<g id="edge7_Node000006_Node000008" class="edge">
<title>Node6&#45;&gt;Node8</title>
<g id="a_edge7_Node000006_Node000008"><a xlink:title=" ">
<path fill="none" stroke="#63b8ff" d="M461.74,-334.19C472.23,-333.13 482.91,-332.04 493.26,-330.99"/>
<polygon fill="#63b8ff" stroke="#63b8ff" points="461.36,-330.72 451.76,-335.21 462.07,-337.68 461.36,-330.72"/>
</a>
</g>
</g>
<!-- Node13 -->
<g id="Node000013" class="node">
<title>Node13</title>
<g id="a_Node000013"><a xlink:href="classIntroSatLib_1_1MagnetometerV2.html" target="_top" xlink:title=" ">
<polygon fill="white" stroke="#bfbfbf" points="648,-204 488,-204 488,-185 648,-185 648,-204"/>
<text text-anchor="middle" x="568" y="-192" font-family="Helvetica,sans-Serif" font-size="10.00">IntroSatLib::MagnetometerV2</text>
</a>
</g>
</g>
<!-- Node12&#45;&gt;Node13 -->
<g id="edge12_Node000012_Node000013" class="edge">
<title>Node12&#45;&gt;Node13</title>
<g id="a_edge12_Node000012_Node000013"><a xlink:title=" ">
<path fill="none" stroke="#8b1a1a" d="M447.88,-194.5C460.87,-194.5 474.58,-194.5 487.89,-194.5"/>
<polygon fill="#8b1a1a" stroke="#8b1a1a" points="447.63,-191 437.63,-194.5 447.63,-198 447.63,-191"/>
</a>
</g>
</g>
<!-- Node16 -->
<g id="Node000016" class="node">
<title>Node16</title>
<g id="a_Node000016"><a xlink:href="classIntroSatLib_1_1AccelerometerV2.html" target="_top" xlink:title=" ">
<polygon fill="white" stroke="#bfbfbf" points="647.5,-149 488.5,-149 488.5,-130 647.5,-130 647.5,-149"/>
<text text-anchor="middle" x="568" y="-137" font-family="Helvetica,sans-Serif" font-size="10.00">IntroSatLib::AccelerometerV2</text>
</a>
</g>
</g>
<!-- Node15&#45;&gt;Node16 -->
<g id="edge15_Node000015_Node000016" class="edge">
<title>Node15&#45;&gt;Node16</title>
<g id="a_edge15_Node000015_Node000016"><a xlink:title=" ">
<path fill="none" stroke="#8b1a1a" d="M449.66,-127.58C462.3,-128.86 475.55,-130.21 488.42,-131.52"/>
<polygon fill="#8b1a1a" stroke="#8b1a1a" points="449.98,-124.09 439.68,-126.56 449.28,-131.06 449.98,-124.09"/>
</a>
</g>
</g>
<!-- Node17 -->
<g id="Node000017" class="node">
<title>Node17</title>
<g id="a_Node000017"><a xlink:href="classIntroSatLib_1_1GyroscopeV2.html" target="_top" xlink:title=" ">
<polygon fill="white" stroke="#bfbfbf" points="638,-112 498,-112 498,-93 638,-93 638,-112"/>
<text text-anchor="middle" x="568" y="-100" font-family="Helvetica,sans-Serif" font-size="10.00">IntroSatLib::GyroscopeV2</text>
</a>
</g>
</g>
<!-- Node15&#45;&gt;Node17 -->
<g id="edge16_Node000015_Node000017" class="edge">
<title>Node15&#45;&gt;Node17</title>
<g id="a_edge16_Node000015_Node000017"><a xlink:title=" ">
<path fill="none" stroke="#8b1a1a" d="M449.83,-113.78C465.51,-112.27 482.13,-110.67 497.79,-109.16"/>
<polygon fill="#8b1a1a" stroke="#8b1a1a" points="449.3,-110.31 439.68,-114.76 449.97,-117.28 449.3,-110.31"/>
</a>
</g>
</g>
</g>
</svg>
