<?xml version="1.0" encoding="UTF-8" standalone="no"?>
<!DOCTYPE svg PUBLIC "-//W3C//DTD SVG 1.1//EN"
 "http://www.w3.org/Graphics/SVG/1.1/DTD/svg11.dtd">
<!-- Generated by graphviz version 12.2.1 (20241206.2353)
 -->
<!-- Title: IntroSatLib::E32_433 Pages: 1 -->
<svg width="134pt" height="138pt"
 viewBox="0.00 0.00 133.50 137.75" xmlns="http://www.w3.org/2000/svg" xmlns:xlink="http://www.w3.org/1999/xlink">
<g id="graph0" class="graph" transform="scale(1 1) rotate(0) translate(4 133.75)">
<title>IntroSatLib::E32_433</title>
<!-- Node1 -->
<g id="Node000001" class="node">
<title>Node1</title>
<g id="a_Node000001"><a xlink:title="Класс для управления LoRa модулем E32&#45;433.">
<polygon fill="#999999" stroke="#666666" points="115.75,-19.25 9.75,-19.25 9.75,0 115.75,0 115.75,-19.25"/>
<text text-anchor="middle" x="62.75" y="-5.75" font-family="Helvetica,sans-Serif" font-size="10.00">IntroSatLib::E32_433</text>
</a>
</g>
</g>
<!-- Node2 -->
<g id="Node000002" class="node">
<title>Node2</title>
<g id="a_Node000002"><a xlink:href="classIntroSatLib_1_1UARTDevice.html" target="_top" xlink:title="Базовый класс для устройств, использующих UART интерфейс">
<polygon fill="white" stroke="#666666" points="125.5,-74.5 0,-74.5 0,-55.25 125.5,-55.25 125.5,-74.5"/>
<text text-anchor="middle" x="62.75" y="-61" font-family="Helvetica,sans-Serif" font-size="10.00">IntroSatLib::UARTDevice</text>
</a>
</g>
</g>
<!-- Node2&#45;&gt;Node1 -->
<g id="edge1_Node000001_Node000002" class="edge">
<title>Node2&#45;&gt;Node1</title>
<g id="a_edge1_Node000001_Node000002"><a xlink:title=" ">
<path fill="none" stroke="#63b8ff" d="M62.75,-43.63C62.75,-35.34 62.75,-26.17 62.75,-19.61"/>
<polygon fill="#63b8ff" stroke="#63b8ff" points="59.25,-43.57 62.75,-53.57 66.25,-43.57 59.25,-43.57"/>
</a>
</g>
</g>
<!-- Node3 -->
<g id="Node000003" class="node">
<title>Node3</title>
<g id="a_Node000003"><a xlink:href="classIntroSatLib_1_1Device.html" target="_top" xlink:title=" ">
<polygon fill="white" stroke="#bfbfbf" points="112,-129.75 13.5,-129.75 13.5,-110.5 112,-110.5 112,-129.75"/>
<text text-anchor="middle" x="62.75" y="-116.25" font-family="Helvetica,sans-Serif" font-size="10.00">IntroSatLib::Device</text>
</a>
</g>
</g>
<!-- Node3&#45;&gt;Node2 -->
<g id="edge2_Node000002_Node000003" class="edge">
<title>Node3&#45;&gt;Node2</title>
<g id="a_edge2_Node000002_Node000003"><a xlink:title=" ">
<path fill="none" stroke="#63b8ff" d="M62.75,-98.88C62.75,-90.59 62.75,-81.42 62.75,-74.86"/>
<polygon fill="#63b8ff" stroke="#63b8ff" points="59.25,-98.82 62.75,-108.82 66.25,-98.82 59.25,-98.82"/>
</a>
</g>
</g>
</g>
</svg>
