<?xml version="1.0" encoding="UTF-8" standalone="no"?>
<!DOCTYPE svg PUBLIC "-//W3C//DTD SVG 1.1//EN"
 "http://www.w3.org/Graphics/SVG/1.1/DTD/svg11.dtd">
<!-- Generated by graphviz version 12.2.1 (20241206.2353)
 -->
<!-- Title: Иерархия классов. Графический вид. Pages: 1 -->
<svg width="644pt" height="619pt"
 viewBox="0.00 0.00 643.50 619.25" xmlns="http://www.w3.org/2000/svg" xmlns:xlink="http://www.w3.org/1999/xlink">
<g id="graph0" class="graph" transform="scale(1 1) rotate(0) translate(4 615.25)">
<title>Иерархия классов. Графический вид.</title>
<!-- Node0 -->
<g id="Node000000" class="node">
<title>Node0</title>
<g id="a_Node000000"><a xlink:href="classIntroSatLib_1_1BaseAccelerometer.html" target="_top" xlink:title=" ">
<polygon fill="white" stroke="#666666" points="288.5,-611.25 134.5,-611.25 134.5,-592 288.5,-592 288.5,-611.25"/>
<text text-anchor="middle" x="211.5" y="-597.75" font-family="Helvetica,sans-Serif" font-size="10.00">IntroSatLib::BaseAccelerometer</text>
</a>
</g>
</g>
<!-- Node1 -->
<g id="Node000001" class="node">
<title>Node1</title>
<g id="a_Node000001"><a xlink:href="classIntroSatLib_1_1LSM6DS3.html" target="_top" xlink:title=" ">
<polygon fill="white" stroke="#666666" points="447,-574.25 333.5,-574.25 333.5,-555 447,-555 447,-574.25"/>
<text text-anchor="middle" x="390.25" y="-560.75" font-family="Helvetica,sans-Serif" font-size="10.00">IntroSatLib::LSM6DS3</text>
</a>
</g>
</g>
<!-- Node0&#45;&gt;Node1 -->
<g id="edge1_Node000000_Node000001" class="edge">
<title>Node0&#45;&gt;Node1</title>
<g id="a_edge1_Node000000_Node000001"><a xlink:title=" ">
<path fill="none" stroke="#63b8ff" d="M271.92,-589.19C294.4,-584.48 319.68,-579.19 341.01,-574.72"/>
<polygon fill="#63b8ff" stroke="#63b8ff" points="271.35,-585.73 262.28,-591.2 272.78,-592.58 271.35,-585.73"/>
</a>
</g>
</g>
<!-- Node2 -->
<g id="Node000002" class="node">
<title>Node2</title>
<g id="a_Node000002"><a xlink:href="classIntroSatLib_1_1AccelerometerV2.html" target="_top" xlink:title=" ">
<polygon fill="white" stroke="#666666" points="635.5,-555.25 492,-555.25 492,-536 635.5,-536 635.5,-555.25"/>
<text text-anchor="middle" x="563.75" y="-541.75" font-family="Helvetica,sans-Serif" font-size="10.00">IntroSatLib::AccelerometerV2</text>
</a>
</g>
</g>
<!-- Node1&#45;&gt;Node2 -->
<g id="edge2_Node000001_Node000002" class="edge">
<title>Node1&#45;&gt;Node2</title>
<g id="a_edge2_Node000001_Node000002"><a xlink:title=" ">
<path fill="none" stroke="#8b1a1a" d="M458.57,-557.17C469.47,-555.96 480.78,-554.71 491.75,-553.49"/>
<polygon fill="#8b1a1a" stroke="#8b1a1a" points="458.46,-553.66 448.91,-558.24 459.23,-560.61 458.46,-553.66"/>
</a>
</g>
</g>
<!-- Node3 -->
<g id="Node000003" class="node">
<title>Node3</title>
<g id="a_Node000003"><a xlink:href="classIntroSatLib_1_1GyroscopeV2.html" target="_top" xlink:title=" ">
<polygon fill="white" stroke="#666666" points="627.25,-592.25 500.25,-592.25 500.25,-573 627.25,-573 627.25,-592.25"/>
<text text-anchor="middle" x="563.75" y="-578.75" font-family="Helvetica,sans-Serif" font-size="10.00">IntroSatLib::GyroscopeV2</text>
</a>
</g>
</g>
<!-- Node1&#45;&gt;Node3 -->
<g id="edge3_Node000001_Node000003" class="edge">
<title>Node1&#45;&gt;Node3</title>
<g id="a_edge3_Node000001_Node000003"><a xlink:title=" ">
<path fill="none" stroke="#8b1a1a" d="M458.65,-571.7C472.25,-573.13 486.5,-574.62 499.94,-576.03"/>
<polygon fill="#8b1a1a" stroke="#8b1a1a" points="459.22,-568.24 448.91,-570.68 458.49,-575.2 459.22,-568.24"/>
</a>
</g>
</g>
<!-- Node32 -->
<g id="Node000032" class="node">
<title>Node32</title>
<g id="a_Node000032"><a xlink:href="classIntroSatLib_1_1BaseBarometer.html" target="_top" xlink:title=" ">
<polygon fill="white" stroke="#666666" points="279.5,-537.25 143.5,-537.25 143.5,-518 279.5,-518 279.5,-537.25"/>
<text text-anchor="middle" x="211.5" y="-523.75" font-family="Helvetica,sans-Serif" font-size="10.00">IntroSatLib::BaseBarometer</text>
</a>
</g>
</g>
<!-- Node31 -->
<g id="Node000031" class="node">
<title>Node31</title>
<g id="a_Node000031"><a xlink:href="classIntroSatLib_1_1MS5611.html" target="_top" xlink:title=" ">
<polygon fill="white" stroke="#666666" points="442.5,-537.25 338,-537.25 338,-518 442.5,-518 442.5,-537.25"/>
<text text-anchor="middle" x="390.25" y="-523.75" font-family="Helvetica,sans-Serif" font-size="10.00">IntroSatLib::MS5611</text>
</a>
</g>
</g>
<!-- Node32&#45;&gt;Node31 -->
<g id="edge4_Node000032_Node000031" class="edge">
<title>Node32&#45;&gt;Node31</title>
<g id="a_edge4_Node000032_Node000031"><a xlink:title=" ">
<path fill="none" stroke="#63b8ff" d="M291.16,-527.62C306.87,-527.62 322.99,-527.62 337.51,-527.62"/>
<polygon fill="#63b8ff" stroke="#63b8ff" points="291.34,-524.13 281.34,-527.63 291.34,-531.13 291.34,-524.13"/>
</a>
</g>
</g>
<!-- Node4 -->
<g id="Node000004" class="node">
<title>Node4</title>
<g id="a_Node000004"><a xlink:href="classIntroSatLib_1_1BaseGyroscope.html" target="_top" xlink:title=" ">
<polygon fill="white" stroke="#666666" points="280.25,-574.25 142.75,-574.25 142.75,-555 280.25,-555 280.25,-574.25"/>
<text text-anchor="middle" x="211.5" y="-560.75" font-family="Helvetica,sans-Serif" font-size="10.00">IntroSatLib::BaseGyroscope</text>
</a>
</g>
</g>
<!-- Node4&#45;&gt;Node1 -->
<g id="edge5_Node000004_Node000001" class="edge">
<title>Node4&#45;&gt;Node1</title>
<g id="a_edge5_Node000004_Node000001"><a xlink:title=" ">
<path fill="none" stroke="#63b8ff" d="M291.72,-564.62C305.72,-564.62 320.04,-564.62 333.23,-564.62"/>
<polygon fill="#63b8ff" stroke="#63b8ff" points="292.1,-561.13 282.1,-564.63 292.1,-568.13 292.1,-561.13"/>
</a>
</g>
</g>
<!-- Node25 -->
<g id="Node000025" class="node">
<title>Node25</title>
<g id="a_Node000025"><a xlink:href="classIntroSatLib_1_1BaseMagnetometer.html" target="_top" xlink:title=" ">
<polygon fill="white" stroke="#666666" points="288.12,-481.25 134.88,-481.25 134.88,-462 288.12,-462 288.12,-481.25"/>
<text text-anchor="middle" x="211.5" y="-467.75" font-family="Helvetica,sans-Serif" font-size="10.00">IntroSatLib::BaseMagnetometer</text>
</a>
</g>
</g>
<!-- Node24 -->
<g id="Node000024" class="node">
<title>Node24</title>
<g id="a_Node000024"><a xlink:href="classIntroSatLib_1_1LIS2MDL.html" target="_top" xlink:title="LIS2MDL \ Этот класс отвечает за взаимодействие с магнитометром LIS2MDL через шину I2C.">
<polygon fill="white" stroke="#666666" points="445.5,-463.25 335,-463.25 335,-444 445.5,-444 445.5,-463.25"/>
<text text-anchor="middle" x="390.25" y="-449.75" font-family="Helvetica,sans-Serif" font-size="10.00">IntroSatLib::LIS2MDL</text>
</a>
</g>
</g>
<!-- Node25&#45;&gt;Node24 -->
<g id="edge6_Node000025_Node000024" class="edge">
<title>Node25&#45;&gt;Node24</title>
<g id="a_edge6_Node000025_Node000024"><a xlink:title=" ">
<path fill="none" stroke="#63b8ff" d="M299.83,-462.73C311.71,-461.52 323.6,-460.31 334.67,-459.18"/>
<polygon fill="#63b8ff" stroke="#63b8ff" points="299.58,-459.24 289.99,-463.73 300.29,-466.2 299.58,-459.24"/>
</a>
</g>
</g>
<!-- Node26 -->
<g id="Node000026" class="node">
<title>Node26</title>
<g id="a_Node000026"><a xlink:href="classIntroSatLib_1_1LIS3MDL.html" target="_top" xlink:title=" ">
<polygon fill="white" stroke="#666666" points="445.5,-500.25 335,-500.25 335,-481 445.5,-481 445.5,-500.25"/>
<text text-anchor="middle" x="390.25" y="-486.75" font-family="Helvetica,sans-Serif" font-size="10.00">IntroSatLib::LIS3MDL</text>
</a>
</g>
</g>
<!-- Node25&#45;&gt;Node26 -->
<g id="edge7_Node000025_Node000026" class="edge">
<title>Node25&#45;&gt;Node26</title>
<g id="a_edge7_Node000025_Node000026"><a xlink:title=" ">
<path fill="none" stroke="#63b8ff" d="M299.83,-481.01C311.71,-482.29 323.6,-483.57 334.67,-484.76"/>
<polygon fill="#63b8ff" stroke="#63b8ff" points="300.31,-477.54 289.99,-479.95 299.56,-484.5 300.31,-477.54"/>
</a>
</g>
</g>
<!-- Node27 -->
<g id="Node000027" class="node">
<title>Node27</title>
<g id="a_Node000027"><a xlink:href="classIntroSatLib_1_1MagnetometerV2.html" target="_top" xlink:title=" ">
<polygon fill="white" stroke="#666666" points="635.12,-500.25 492.38,-500.25 492.38,-481 635.12,-481 635.12,-500.25"/>
<text text-anchor="middle" x="563.75" y="-486.75" font-family="Helvetica,sans-Serif" font-size="10.00">IntroSatLib::MagnetometerV2</text>
</a>
</g>
</g>
<!-- Node26&#45;&gt;Node27 -->
<g id="edge8_Node000026_Node000027" class="edge">
<title>Node26&#45;&gt;Node27</title>
<g id="a_edge8_Node000026_Node000027"><a xlink:title=" ">
<path fill="none" stroke="#8b1a1a" d="M457.17,-490.62C468.55,-490.62 480.42,-490.62 491.92,-490.62"/>
<polygon fill="#8b1a1a" stroke="#8b1a1a" points="457.5,-487.13 447.5,-490.63 457.5,-494.13 457.5,-487.13"/>
</a>
</g>
</g>
<!-- Node29 -->
<g id="Node000029" class="node">
<title>Node29</title>
<g id="a_Node000029"><a xlink:href="classIntroSatLib_1_1BaseTemperatureSensor.html" target="_top" xlink:title=" ">
<polygon fill="white" stroke="#666666" points="284.38,-215.88 138.62,-215.88 138.62,-185.38 284.38,-185.38 284.38,-215.88"/>
<text text-anchor="start" x="146.62" y="-202.38" font-family="Helvetica,sans-Serif" font-size="10.00">IntroSatLib::BaseTemperature</text>
<text text-anchor="middle" x="211.5" y="-191.12" font-family="Helvetica,sans-Serif" font-size="10.00">Sensor</text>
</a>
</g>
</g>
<!-- Node28 -->
<g id="Node000028" class="node">
<title>Node28</title>
<g id="a_Node000028"><a xlink:href="classIntroSatLib_1_1LM75A.html" target="_top" xlink:title=" ">
<polygon fill="white" stroke="#666666" points="440.25,-204.25 340.25,-204.25 340.25,-185 440.25,-185 440.25,-204.25"/>
<text text-anchor="middle" x="390.25" y="-190.75" font-family="Helvetica,sans-Serif" font-size="10.00">IntroSatLib::LM75A</text>
</a>
</g>
</g>
<!-- Node29&#45;&gt;Node28 -->
<g id="edge9_Node000029_Node000028" class="edge">
<title>Node29&#45;&gt;Node28</title>
<g id="a_edge9_Node000029_Node000028"><a xlink:title=" ">
<path fill="none" stroke="#63b8ff" d="M296.08,-197.79C311.12,-197.28 326.35,-196.76 340.01,-196.3"/>
<polygon fill="#63b8ff" stroke="#63b8ff" points="296.03,-194.29 286.16,-198.12 296.27,-201.28 296.03,-194.29"/>
</a>
</g>
</g>
<!-- Node9 -->
<g id="Node000009" class="node">
<title>Node9</title>
<g id="a_Node000009"><a xlink:href="classIntroSatLib_1_1Device.html" target="_top" xlink:title=" ">
<polygon fill="white" stroke="#666666" points="98.5,-130.25 0,-130.25 0,-111 98.5,-111 98.5,-130.25"/>
<text text-anchor="middle" x="49.25" y="-116.75" font-family="Helvetica,sans-Serif" font-size="10.00">IntroSatLib::Device</text>
</a>
</g>
</g>
<!-- Node8 -->
<g id="Node000008" class="node">
<title>Node8</title>
<g id="a_Node000008"><a xlink:href="classIntroSatLib_1_1BaseADC.html" target="_top" xlink:title=" ">
<polygon fill="white" stroke="#666666" points="267.12,-167.25 155.88,-167.25 155.88,-148 267.12,-148 267.12,-167.25"/>
<text text-anchor="middle" x="211.5" y="-153.75" font-family="Helvetica,sans-Serif" font-size="10.00">IntroSatLib::BaseADC</text>
</a>
</g>
</g>
<!-- Node9&#45;&gt;Node8 -->
<g id="edge10_Node000009_Node000008" class="edge">
<title>Node9&#45;&gt;Node8</title>
<g id="a_edge10_Node000009_Node000008"><a xlink:title=" ">
<path fill="none" stroke="#63b8ff" d="M105.24,-133.32C125.34,-137.96 147.78,-143.14 166.76,-147.53"/>
<polygon fill="#63b8ff" stroke="#63b8ff" points="106.04,-129.92 95.51,-131.08 104.47,-136.74 106.04,-129.92"/>
</a>
</g>
</g>
<!-- Node5 -->
<g id="Node000005" class="node">
<title>Node5</title>
<g id="a_Node000005"><a xlink:href="classIntroSatLib_1_1I2CDevice.html" target="_top" xlink:title=" ">
<polygon fill="white" stroke="#666666" points="268.25,-352.25 154.75,-352.25 154.75,-333 268.25,-333 268.25,-352.25"/>
<text text-anchor="middle" x="211.5" y="-338.75" font-family="Helvetica,sans-Serif" font-size="10.00">IntroSatLib::I2CDevice</text>
</a>
</g>
</g>
<!-- Node9&#45;&gt;Node5 -->
<g id="edge13_Node000009_Node000005" class="edge">
<title>Node9&#45;&gt;Node5</title>
<g id="a_edge13_Node000009_Node000005"><a xlink:title=" ">
<path fill="none" stroke="#63b8ff" d="M64.13,-139.85C96.99,-185.38 178.68,-298.54 203.34,-332.7"/>
<polygon fill="#63b8ff" stroke="#63b8ff" points="67.13,-138.03 58.44,-131.97 61.45,-142.12 67.13,-138.03"/>
</a>
</g>
</g>
<!-- Node10 -->
<g id="Node000010" class="node">
<title>Node10</title>
<g id="a_Node000010"><a xlink:href="classIntroSatLib_1_1RadioTransceiver.html" target="_top" xlink:title=" ">
<polygon fill="white" stroke="#666666" points="283.62,-130.25 139.38,-130.25 139.38,-111 283.62,-111 283.62,-130.25"/>
<text text-anchor="middle" x="211.5" y="-116.75" font-family="Helvetica,sans-Serif" font-size="10.00">IntroSatLib::RadioTransceiver</text>
</a>
</g>
</g>
<!-- Node9&#45;&gt;Node10 -->
<g id="edge28_Node000009_Node000010" class="edge">
<title>Node9&#45;&gt;Node10</title>
<g id="a_edge28_Node000009_Node000010"><a xlink:title=" ">
<path fill="none" stroke="#63b8ff" d="M110.07,-120.62C119.53,-120.62 129.4,-120.62 139.09,-120.62"/>
<polygon fill="#63b8ff" stroke="#63b8ff" points="110.28,-117.13 100.28,-120.63 110.28,-124.13 110.28,-117.13"/>
</a>
</g>
</g>
<!-- Node11 -->
<g id="Node000011" class="node">
<title>Node11</title>
<g id="a_Node000011"><a xlink:href="classIntroSatLib_1_1SPIDevice.html" target="_top" xlink:title=" ">
<polygon fill="white" stroke="#666666" points="269,-93.25 154,-93.25 154,-74 269,-74 269,-93.25"/>
<text text-anchor="middle" x="211.5" y="-79.75" font-family="Helvetica,sans-Serif" font-size="10.00">IntroSatLib::SPIDevice</text>
</a>
</g>
</g>
<!-- Node9&#45;&gt;Node11 -->
<g id="edge29_Node000009_Node000011" class="edge">
<title>Node9&#45;&gt;Node11</title>
<g id="a_edge29_Node000009_Node000011"><a xlink:title=" ">
<path fill="none" stroke="#63b8ff" d="M105.24,-107.93C125.34,-103.29 147.78,-98.11 166.76,-93.72"/>
<polygon fill="#63b8ff" stroke="#63b8ff" points="104.47,-104.51 95.51,-110.17 106.04,-111.33 104.47,-104.51"/>
</a>
</g>
</g>
<!-- Node13 -->
<g id="Node000013" class="node">
<title>Node13</title>
<g id="a_Node000013"><a xlink:href="classIntroSatLib_1_1UARTDevice.html" target="_top" xlink:title="Базовый класс для устройств, использующих UART интерфейс">
<polygon fill="white" stroke="#666666" points="274.25,-56.25 148.75,-56.25 148.75,-37 274.25,-37 274.25,-56.25"/>
<text text-anchor="middle" x="211.5" y="-42.75" font-family="Helvetica,sans-Serif" font-size="10.00">IntroSatLib::UARTDevice</text>
</a>
</g>
</g>
<!-- Node9&#45;&gt;Node13 -->
<g id="edge31_Node000009_Node000013" class="edge">
<title>Node9&#45;&gt;Node13</title>
<g id="a_edge31_Node000009_Node000013"><a xlink:title=" ">
<path fill="none" stroke="#63b8ff" d="M70.99,-103.79C87.34,-91.3 111.2,-74.74 134.5,-64.62 141.71,-61.49 149.56,-58.86 157.38,-56.65"/>
<polygon fill="#63b8ff" stroke="#63b8ff" points="69.2,-100.75 63.48,-109.67 73.51,-106.26 69.2,-100.75"/>
</a>
</g>
</g>
<!-- Node6 -->
<g id="Node000006" class="node">
<title>Node6</title>
<g id="a_Node000006"><a xlink:href="classIntroSatLib_1_1ADS7830.html" target="_top" xlink:title="Класс для работы с 8&#45;канальным 8&#45;битным АЦП ADS7830 по интерфейсу I2C.">
<polygon fill="white" stroke="#666666" points="445.12,-167.25 335.38,-167.25 335.38,-148 445.12,-148 445.12,-167.25"/>
<text text-anchor="middle" x="390.25" y="-153.75" font-family="Helvetica,sans-Serif" font-size="10.00">IntroSatLib::ADS7830</text>
</a>
</g>
</g>
<!-- Node8&#45;&gt;Node6 -->
<g id="edge11_Node000008_Node000006" class="edge">
<title>Node8&#45;&gt;Node6</title>
<g id="a_edge11_Node000008_Node000006"><a xlink:title=" ">
<path fill="none" stroke="#63b8ff" d="M278.78,-157.62C297.29,-157.62 317.2,-157.62 334.94,-157.62"/>
<polygon fill="#63b8ff" stroke="#63b8ff" points="278.97,-154.13 268.97,-157.63 278.97,-161.13 278.97,-154.13"/>
</a>
</g>
</g>
<!-- Node7 -->
<g id="Node000007" class="node">
<title>Node7</title>
<g id="a_Node000007"><a xlink:href="classIntroSatLib_1_1PicoADC.html" target="_top" xlink:title="Класс для работы с АЦП на плате питания IntroSat.Pico.">
<polygon fill="white" stroke="#666666" points="617.88,-167.25 509.62,-167.25 509.62,-148 617.88,-148 617.88,-167.25"/>
<text text-anchor="middle" x="563.75" y="-153.75" font-family="Helvetica,sans-Serif" font-size="10.00">IntroSatLib::PicoADC</text>
</a>
</g>
</g>
<!-- Node6&#45;&gt;Node7 -->
<g id="edge12_Node000006_Node000007" class="edge">
<title>Node6&#45;&gt;Node7</title>
<g id="a_edge12_Node000006_Node000007"><a xlink:title=" ">
<path fill="none" stroke="#63b8ff" d="M456.7,-157.62C474.02,-157.62 492.52,-157.62 509.13,-157.62"/>
<polygon fill="#63b8ff" stroke="#63b8ff" points="457.03,-154.13 447.03,-157.63 457.03,-161.13 457.03,-154.13"/>
</a>
</g>
</g>
<!-- Node5&#45;&gt;Node1 -->
<g id="edge25_Node000005_Node000001" class="edge">
<title>Node5&#45;&gt;Node1</title>
<g id="a_edge25_Node000005_Node000001"><a xlink:title=" ">
<path fill="none" stroke="darkgreen" d="M227.75,-361.64C244.27,-382.89 270.65,-418.77 288.5,-452.62 309.36,-492.2 291.41,-516.52 324.5,-546.62 327.95,-549.77 331.91,-552.36 336.12,-554.51"/>
<polygon fill="darkgreen" stroke="darkgreen" points="230.59,-359.59 221.65,-353.9 225.09,-363.92 230.59,-359.59"/>
</a>
</g>
</g>
<!-- Node5&#45;&gt;Node31 -->
<g id="edge27_Node000005_Node000031" class="edge">
<title>Node5&#45;&gt;Node31</title>
<g id="a_edge27_Node000005_Node000031"><a xlink:title=" ">
<path fill="none" stroke="darkgreen" d="M226.03,-361.69C241.42,-383.5 267.18,-420.36 288.5,-452.62 305.02,-477.62 300.45,-491.75 324.5,-509.62 328.81,-512.83 333.66,-515.46 338.72,-517.62"/>
<polygon fill="darkgreen" stroke="darkgreen" points="229.06,-359.92 220.43,-353.78 223.35,-363.96 229.06,-359.92"/>
</a>
</g>
</g>
<!-- Node5&#45;&gt;Node24 -->
<g id="edge22_Node000005_Node000024" class="edge">
<title>Node5&#45;&gt;Node24</title>
<g id="a_edge22_Node000005_Node000024"><a xlink:title=" ">
<path fill="none" stroke="darkgreen" d="M229.45,-360.73C250.02,-381.69 286.68,-415.84 324.5,-435.62 330.5,-438.76 337.1,-441.4 343.73,-443.61"/>
<polygon fill="darkgreen" stroke="darkgreen" points="232.16,-358.51 222.71,-353.73 227.12,-363.36 232.16,-358.51"/>
</a>
</g>
</g>
<!-- Node5&#45;&gt;Node26 -->
<g id="edge23_Node000005_Node000026" class="edge">
<title>Node5&#45;&gt;Node26</title>
<g id="a_edge23_Node000005_Node000026"><a xlink:title=" ">
<path fill="none" stroke="darkgreen" d="M224.02,-362.17C241.88,-390.78 279,-443.75 324.5,-472.62 329.52,-475.81 335.12,-478.45 340.85,-480.62"/>
<polygon fill="darkgreen" stroke="darkgreen" points="227.11,-360.52 218.92,-353.8 221.13,-364.16 227.11,-360.52"/>
</a>
</g>
</g>
<!-- Node5&#45;&gt;Node28 -->
<g id="edge24_Node000005_Node000028" class="edge">
<title>Node5&#45;&gt;Node28</title>
<g id="a_edge24_Node000005_Node000028"><a xlink:title=" ">
<path fill="none" stroke="darkgreen" d="M224.02,-323.08C241.88,-294.47 279,-241.5 324.5,-212.62 329.52,-209.44 335.12,-206.8 340.85,-204.63"/>
<polygon fill="darkgreen" stroke="darkgreen" points="221.13,-321.09 218.92,-331.45 227.11,-324.73 221.13,-321.09"/>
</a>
</g>
</g>
<!-- Node5&#45;&gt;Node6 -->
<g id="edge14_Node000005_Node000006" class="edge">
<title>Node5&#45;&gt;Node6</title>
<g id="a_edge14_Node000005_Node000006"><a xlink:title=" ">
<path fill="none" stroke="darkgreen" d="M225.2,-322.91C253.02,-279.84 317.42,-180.74 324.5,-175.62 328.85,-172.48 333.73,-169.89 338.8,-167.75"/>
<polygon fill="darkgreen" stroke="darkgreen" points="222.27,-320.99 219.79,-331.29 228.15,-324.79 222.27,-320.99"/>
</a>
</g>
</g>
<!-- Node17 -->
<g id="Node000017" class="node">
<title>Node17</title>
<g id="a_Node000017"><a xlink:href="classIntroSatLib_1_1AK8963.html" target="_top" xlink:title=" ">
<polygon fill="white" stroke="#666666" points="441.75,-315.25 338.75,-315.25 338.75,-296 441.75,-296 441.75,-315.25"/>
<text text-anchor="middle" x="390.25" y="-301.75" font-family="Helvetica,sans-Serif" font-size="10.00">IntroSatLib::AK8963</text>
</a>
</g>
</g>
<!-- Node5&#45;&gt;Node17 -->
<g id="edge15_Node000005_Node000017" class="edge">
<title>Node5&#45;&gt;Node17</title>
<g id="a_edge15_Node000005_Node000017"><a xlink:title=" ">
<path fill="none" stroke="#8b1a1a" d="M271.92,-330.19C294.4,-325.48 319.68,-320.19 341.01,-315.72"/>
<polygon fill="#8b1a1a" stroke="#8b1a1a" points="271.35,-326.73 262.28,-332.2 272.78,-333.58 271.35,-326.73"/>
</a>
</g>
</g>
<!-- Node18 -->
<g id="Node000018" class="node">
<title>Node18</title>
<g id="a_Node000018"><a xlink:href="classIntroSatLib_1_1Accelerometer.html" target="_top" xlink:title=" ">
<polygon fill="white" stroke="#666666" points="456,-278.25 324.5,-278.25 324.5,-259 456,-259 456,-278.25"/>
<text text-anchor="middle" x="390.25" y="-264.75" font-family="Helvetica,sans-Serif" font-size="10.00">IntroSatLib::Accelerometer</text>
</a>
</g>
</g>
<!-- Node5&#45;&gt;Node18 -->
<g id="edge16_Node000005_Node000018" class="edge">
<title>Node5&#45;&gt;Node18</title>
<g id="a_edge16_Node000005_Node000018"><a xlink:title=" ">
<path fill="none" stroke="darkgreen" d="M239.92,-327.04C262.19,-314.85 294.69,-298.1 324.5,-286.62 332.12,-283.69 340.42,-281.02 348.45,-278.68"/>
<polygon fill="darkgreen" stroke="darkgreen" points="238.24,-323.98 231.19,-331.89 241.63,-330.1 238.24,-323.98"/>
</a>
</g>
</g>
<!-- Node19 -->
<g id="Node000019" class="node">
<title>Node19</title>
<g id="a_Node000019"><a xlink:href="classIntroSatLib_1_1BaseFlyWheel.html" target="_top" xlink:title=" ">
<polygon fill="white" stroke="#666666" points="455.62,-241.25 324.88,-241.25 324.88,-222 455.62,-222 455.62,-241.25"/>
<text text-anchor="middle" x="390.25" y="-227.75" font-family="Helvetica,sans-Serif" font-size="10.00">IntroSatLib::BaseFlyWheel</text>
</a>
</g>
</g>
<!-- Node5&#45;&gt;Node19 -->
<g id="edge17_Node000005_Node000019" class="edge">
<title>Node5&#45;&gt;Node19</title>
<g id="a_edge17_Node000005_Node000019"><a xlink:title=" ">
<path fill="none" stroke="#8b1a1a" d="M229.45,-324.52C250.02,-303.56 286.68,-269.41 324.5,-249.62 330.5,-246.49 337.1,-243.85 343.73,-241.64"/>
<polygon fill="#8b1a1a" stroke="#8b1a1a" points="227.12,-321.89 222.71,-331.52 232.16,-326.74 227.12,-321.89"/>
</a>
</g>
</g>
<!-- Node22 -->
<g id="Node000022" class="node">
<title>Node22</title>
<g id="a_Node000022"><a xlink:href="classIntroSatLib_1_1Gyroscope.html" target="_top" xlink:title=" ">
<polygon fill="white" stroke="#666666" points="447.75,-426.25 332.75,-426.25 332.75,-407 447.75,-407 447.75,-426.25"/>
<text text-anchor="middle" x="390.25" y="-412.75" font-family="Helvetica,sans-Serif" font-size="10.00">IntroSatLib::Gyroscope</text>
</a>
</g>
</g>
<!-- Node5&#45;&gt;Node22 -->
<g id="edge20_Node000005_Node000022" class="edge">
<title>Node5&#45;&gt;Node22</title>
<g id="a_edge20_Node000005_Node000022"><a xlink:title=" ">
<path fill="none" stroke="#8b1a1a" d="M239.92,-358.21C262.19,-370.4 294.69,-387.15 324.5,-398.62 332.12,-401.56 340.42,-404.23 348.45,-406.57"/>
<polygon fill="#8b1a1a" stroke="#8b1a1a" points="241.63,-355.15 231.19,-353.36 238.24,-361.27 241.63,-355.15"/>
</a>
</g>
</g>
<!-- Node23 -->
<g id="Node000023" class="node">
<title>Node23</title>
<g id="a_Node000023"><a xlink:href="classIntroSatLib_1_1IRCamera.html" target="_top" xlink:title=" ">
<polygon fill="white" stroke="#666666" points="446.25,-389.25 334.25,-389.25 334.25,-370 446.25,-370 446.25,-389.25"/>
<text text-anchor="middle" x="390.25" y="-375.75" font-family="Helvetica,sans-Serif" font-size="10.00">IntroSatLib::IRCamera</text>
</a>
</g>
</g>
<!-- Node5&#45;&gt;Node23 -->
<g id="edge21_Node000005_Node000023" class="edge">
<title>Node5&#45;&gt;Node23</title>
<g id="a_edge21_Node000005_Node000023"><a xlink:title=" ">
<path fill="none" stroke="#8b1a1a" d="M271.92,-355.06C294.4,-359.77 319.68,-365.06 341.01,-369.53"/>
<polygon fill="#8b1a1a" stroke="#8b1a1a" points="272.78,-351.67 262.28,-353.05 271.35,-358.52 272.78,-351.67"/>
</a>
</g>
</g>
<!-- Node30 -->
<g id="Node000030" class="node">
<title>Node30</title>
<g id="a_Node000030"><a xlink:href="classIntroSatLib_1_1LightSensor.html" target="_top" xlink:title=" ">
<polygon fill="white" stroke="#666666" points="450.75,-352.25 329.75,-352.25 329.75,-333 450.75,-333 450.75,-352.25"/>
<text text-anchor="middle" x="390.25" y="-338.75" font-family="Helvetica,sans-Serif" font-size="10.00">IntroSatLib::LightSensor</text>
</a>
</g>
</g>
<!-- Node5&#45;&gt;Node30 -->
<g id="edge26_Node000005_Node000030" class="edge">
<title>Node5&#45;&gt;Node30</title>
<g id="a_edge26_Node000005_Node000030"><a xlink:title=" ">
<path fill="none" stroke="#8b1a1a" d="M279.57,-342.62C295.96,-342.62 313.39,-342.62 329.41,-342.62"/>
<polygon fill="#8b1a1a" stroke="#8b1a1a" points="279.94,-339.13 269.94,-342.63 279.94,-346.13 279.94,-339.13"/>
</a>
</g>
</g>
<!-- Node20 -->
<g id="Node000020" class="node">
<title>Node20</title>
<g id="a_Node000020"><a xlink:href="classIntroSatLib_1_1CoilFlyWheel.html" target="_top" xlink:title=" ">
<polygon fill="white" stroke="#666666" points="626.12,-222.25 501.38,-222.25 501.38,-203 626.12,-203 626.12,-222.25"/>
<text text-anchor="middle" x="563.75" y="-208.75" font-family="Helvetica,sans-Serif" font-size="10.00">IntroSatLib::CoilFlyWheel</text>
</a>
</g>
</g>
<!-- Node19&#45;&gt;Node20 -->
<g id="edge18_Node000019_Node000020" class="edge">
<title>Node19&#45;&gt;Node20</title>
<g id="a_edge18_Node000019_Node000020"><a xlink:title=" ">
<path fill="none" stroke="#63b8ff" d="M467.25,-223.21C478.51,-221.96 490.01,-220.68 500.94,-219.47"/>
<polygon fill="#63b8ff" stroke="#63b8ff" points="467.14,-219.7 457.59,-224.28 467.92,-226.65 467.14,-219.7"/>
</a>
</g>
</g>
<!-- Node21 -->
<g id="Node000021" class="node">
<title>Node21</title>
<g id="a_Node000021"><a xlink:href="classIntroSatLib_1_1MotorFlyWheel.html" target="_top" xlink:title=" ">
<polygon fill="white" stroke="#666666" points="630.25,-259.25 497.25,-259.25 497.25,-240 630.25,-240 630.25,-259.25"/>
<text text-anchor="middle" x="563.75" y="-245.75" font-family="Helvetica,sans-Serif" font-size="10.00">IntroSatLib::MotorFlyWheel</text>
</a>
</g>
</g>
<!-- Node19&#45;&gt;Node21 -->
<g id="edge19_Node000019_Node000021" class="edge">
<title>Node19&#45;&gt;Node21</title>
<g id="a_edge19_Node000019_Node000021"><a xlink:title=" ">
<path fill="none" stroke="#63b8ff" d="M467.51,-239.63C477.34,-240.66 487.33,-241.71 496.97,-242.72"/>
<polygon fill="#63b8ff" stroke="#63b8ff" points="467.9,-236.15 457.59,-238.59 467.17,-243.11 467.9,-236.15"/>
</a>
</g>
</g>
<!-- Node12 -->
<g id="Node000012" class="node">
<title>Node12</title>
<g id="a_Node000012"><a xlink:href="classIntroSatLib_1_1CC1101.html" target="_top" xlink:title=" ">
<polygon fill="white" stroke="#666666" points="441.75,-93.25 338.75,-93.25 338.75,-74 441.75,-74 441.75,-93.25"/>
<text text-anchor="middle" x="390.25" y="-79.75" font-family="Helvetica,sans-Serif" font-size="10.00">IntroSatLib::CC1101</text>
</a>
</g>
</g>
<!-- Node11&#45;&gt;Node12 -->
<g id="edge30_Node000011_Node000012" class="edge">
<title>Node11&#45;&gt;Node12</title>
<g id="a_edge30_Node000011_Node000012"><a xlink:title=" ">
<path fill="none" stroke="#8b1a1a" d="M280.81,-83.62C299.98,-83.62 320.47,-83.62 338.43,-83.62"/>
<polygon fill="#8b1a1a" stroke="#8b1a1a" points="280.91,-80.13 270.91,-83.63 280.91,-87.13 280.91,-80.13"/>
</a>
</g>
</g>
<!-- Node14 -->
<g id="Node000014" class="node">
<title>Node14</title>
<g id="a_Node000014"><a xlink:href="classIntroSatLib_1_1ATDevice.html" target="_top" xlink:title="Базовый класс для устройств, использующих AT&#45;команды">
<polygon fill="white" stroke="#666666" points="445.88,-19.25 334.62,-19.25 334.62,0 445.88,0 445.88,-19.25"/>
<text text-anchor="middle" x="390.25" y="-5.75" font-family="Helvetica,sans-Serif" font-size="10.00">IntroSatLib::ATDevice</text>
</a>
</g>
</g>
<!-- Node13&#45;&gt;Node14 -->
<g id="edge32_Node000013_Node000014" class="edge">
<title>Node13&#45;&gt;Node14</title>
<g id="a_edge32_Node000013_Node000014"><a xlink:title=" ">
<path fill="none" stroke="#63b8ff" d="M271.92,-34.19C294.4,-29.48 319.68,-24.19 341.01,-19.72"/>
<polygon fill="#63b8ff" stroke="#63b8ff" points="271.35,-30.73 262.28,-36.2 272.78,-37.58 271.35,-30.73"/>
</a>
</g>
</g>
<!-- Node16 -->
<g id="Node000016" class="node">
<title>Node16</title>
<g id="a_Node000016"><a xlink:href="classIntroSatLib_1_1E32__433.html" target="_top" xlink:title="Класс для управления LoRa модулем E32&#45;433.">
<polygon fill="white" stroke="#666666" points="443.25,-56.25 337.25,-56.25 337.25,-37 443.25,-37 443.25,-56.25"/>
<text text-anchor="middle" x="390.25" y="-42.75" font-family="Helvetica,sans-Serif" font-size="10.00">IntroSatLib::E32_433</text>
</a>
</g>
</g>
<!-- Node13&#45;&gt;Node16 -->
<g id="edge34_Node000013_Node000016" class="edge">
<title>Node13&#45;&gt;Node16</title>
<g id="a_edge34_Node000013_Node000016"><a xlink:title=" ">
<path fill="none" stroke="#63b8ff" d="M285.49,-46.62C302.72,-46.62 320.74,-46.62 336.85,-46.62"/>
<polygon fill="#63b8ff" stroke="#63b8ff" points="285.83,-43.13 275.83,-46.63 285.83,-50.13 285.83,-43.13"/>
</a>
</g>
</g>
<!-- Node15 -->
<g id="Node000015" class="node">
<title>Node15</title>
<g id="a_Node000015"><a xlink:href="classIntroSatLib_1_1FSC__BT986.html" target="_top" xlink:title="Класс драйвера Bluetooth&#45;модуля FSC&#45;BT986.">
<polygon fill="white" stroke="#666666" points="624.62,-19.25 502.88,-19.25 502.88,0 624.62,0 624.62,-19.25"/>
<text text-anchor="middle" x="563.75" y="-5.75" font-family="Helvetica,sans-Serif" font-size="10.00">IntroSatLib::FSC_BT986</text>
</a>
</g>
</g>
<!-- Node14&#45;&gt;Node15 -->
<g id="edge33_Node000014_Node000015" class="edge">
<title>Node14&#45;&gt;Node15</title>
<g id="a_edge33_Node000014_Node000015"><a xlink:title=" ">
<path fill="none" stroke="#63b8ff" d="M457.21,-9.62C472.14,-9.62 487.92,-9.62 502.59,-9.62"/>
<polygon fill="#63b8ff" stroke="#63b8ff" points="457.5,-6.13 447.5,-9.63 457.5,-13.13 457.5,-6.13"/>
</a>
</g>
</g>
</g>
</svg>
